<mxfile host="Electron" agent="Mozilla/5.0 (Macintosh; Intel Mac OS X 10_15_7) AppleWebKit/537.36 (KHTML, like Gecko) draw.io/25.0.2 Chrome/128.0.6613.186 Electron/32.2.5 Safari/537.36" version="25.0.2">
  <diagram name="Page-1" id="oo-ZgDfyL9Ay4hEghHGP">
    <mxGraphModel dx="2530" dy="1763" grid="1" gridSize="10" guides="1" tooltips="1" connect="1" arrows="1" fold="1" page="1" pageScale="1" pageWidth="850" pageHeight="1100" math="1" shadow="0">
      <root>
        <mxCell id="0" />
        <mxCell id="1" parent="0" />
        <mxCell id="kMqr7UI8cW892v_OXYxu-1" value="" style="shape=image;verticalLabelPosition=bottom;labelBackgroundColor=default;verticalAlign=top;aspect=fixed;imageAspect=0;image=data:image/png,iVBORw0KGgoAAAANSUhEUgAAAzoAAAH5CAIAAADGMNzQAAAAAXNSR0IArs4c6QAAAERlWElmTU0AKgAAAAgAAYdpAAQAAAABAAAAGgAAAAAAA6ABAAMAAAABAAEAAKACAAQAAAABAAADOqADAAQAAAABAAAB+QAAAAAsxDc4AABAAElEQVR4AezdCVxVZfrAcbnsIKCAAioC7guuqAhurZZbWVaa5laaWmZmNeU4/6mcZpylaczKLS2z1Mwlx8pM29xAU8R9X0EFEZR9X/4P3pkbAwgXuMs55/7uxw+de+45533e73PNh7O8r11JSUk9XggggAACCCCAAAJKFdApNTDiQgABBBBAAAEEECgVoFzje4AAAggggAACCChagHJN0ekhOAQQQAABBBBAgHKN7wACCCCAAAIIIKBoAco1RaeH4BBAAAEEEEAAAco1vgMIIIAAAggggICiBSjXFJ0egkMAAQQQQAABBBysSFBcXHzt2jUPDw87OzsrhkHTCCCAAAIIIICAdQVkHNyMjIwmTZrodJWdSpOPrfWKj4+3Lg2tI4AAAggggAACyhGQ0qjSqsyaZ9fkvJoASWSenp7KkSISBBBAAAEEEEDAwgLp6emBgYH60qhi09Ys1/TXQKVWo1yrmBjWIIAAAggggICtCdzp9rDKro/amg39RQABBBBAAAEEFCxAuabg5BAaAggggAACCCDAnKF8BxBAAAEEEEAAAYULcHZN4QkiPAQQQAABBBCwdQHKNVv/BtB/BBBAAAEEEFC4AOWawhNEeAgggAACCCBg6wKUa7b+DaD/CCCAAAIIIKBwAco1hSeI8BBAAAEEEEDA1gUo12z9G0D/EUAAAQQQQEDhApRrCk8Q4SGAAAIIIICArQtQrtn6N4D+I4AAAggggIDCBSjXFJ4gwkMAAQQQQAABWxegXLP1bwD9RwABBBBAAAGFC1CuKTxBhIcAAggggAACti5gVLm2c+fOYcOGNWnSxM7ObtOmTXcy27FjR1hYmIuLS4sWLRYvXnynzViPAAIIIIAAAgggYLyAUeVaVlZWly5dPvjggyqOe/HixcGDB/fr1y82Nvb3v//9jBkzNmzYUMX2fIQAAggggAACCCBgjICDMRsNuv2qeks5nda8efP58+fLZu3btz9w4MA777wzYsSIqvfiUwQQQAABBBBAAIGqBYwq16o+hP7T6OjogQMHGrZ84IEHli9fXlBQ4OjoaFgpC3m3X/o16enpZT8y3/KTS/cWFZc4Otg52uuc7HWODrd/2pe+LV3jID/t3Jwc3Jzsb/9xcHe2d3Us/alf6S4fOdvLluaLkCMjgAACCCCAAAJ3EjBZuZaYmOjn52doRpYLCwuTk5MDAgIMK2Vh3rx5b731Vtk1Flg+cPlmQVFJHRtyd7L3cnX0dHWUnw3cSn8a/shKH3dnXw8n+ekt2+ns6tgWuyOAAAIIIIAAAgYBk5VrckR5EMFw3JKS0vKo7Br9R7Nnz541a5Z+Wc6uBQYGGnYx38LCMWEFRcXyJ79Qfpb8Z1nWFJbkFxXJGlmfk1+UlV+o/5mdX1T6J68wK79I1uQXFUtssix/rqXlVh2nlGpSsfnWd/apX/rzv3+cArxc/b1cArxc3J1NaV51MHyKAAIIIIAAAhoQMFnp4O/vLyfYDCJJSUkODg4+Pj6GNfoF59uvcivN/fb+Dr+d9qtFW1LMZeUVpuUUGP6k5hSk699mF6Tm5KdmF9zKzk/OzJefxSX1ZEH+3KkhTxcHfenWpIGLv6erFHABDVyaNHBt1tDV2cH+TnuxHgEEEEAAAQRsVsBk5VpERMTXX39tcNy2bVuPHj3K3bhm+FRdC3Jzm5ODU0N3p2rDLiwqvplVWqslZ+bp/6Rk5t/IzLuRkZeYlit/MvIK03PlT8bp6xnljianJv09XQIbugV6uzWXPz6u8lPeNvJwrniSsty+vEUAAQQQQAABDQsYVa5lZmaeO3dOryADdhw6dMjb21ueA5Urm1evXl25cqV8NHXqVBnpQy50Tp48WR47kOcM1qxZo2G4SrvmYK9r7Okifyr9VFZm5BZI0ZZwu3Qr/Zmecy1V3uZcvZUjV1pljfz59dLNsru7OOqkaAvxdW/RqH6LRu4tG9Vv2ci9gVv1tWPZg7CMAAIIIIAAAuoVsNPfZFZ1B3755Ze777677Dbjx49fsWLFhAkTLl26JJ/qP5Jhcl966aXjx4/LgLqvvfaaFHBld6m4LPeueXl5paWleXp6VvzUptZIFuS0XNzN7PhbOfE3s+NSsmVZ/kglJ1dXK77k9rgWvqWlmxRwUsa1alxfTsXxiENFKNYggAACCCCgCoGqiyKjyjUz9bPqyMzUqLoOK09FXEvNuZSSffFG5oXkrPPy80aWnIGr2As5Cde6sUdbf4+2fqU/2/l7cBW1ohJrEEAAAQQQUKZA1UUR5Zoys1ZVVNn5hVK0lVZvSaU13IUbmVLG5RaUPr5a9tXQzbGNX2nd1tbfs0MTT1lwceRRhrJCLCOAAAIIIKAUAco1pWTCfHHIIMBy5fR0YvrpxMzT19NPJWZcSs4qdxVVLpW2bly/YxOvTk09Q5t6tQ/wZEgR82WEIyOAAAIIIFAjAcq1GnFpZOPcgqJzSZmnEzPOXM84mZhx/GpaStb/jC0iD6LK3W+dmnpJ6SY1XOdmXlRvGsk93UAAAQQQUKEA5ZoKk2bqkOVRhuvpeceuph29mnb8Wtqxq+mJ6f9zA5yM7itXTrs1b9gtsEG35g3kIQYdczOYOgscDwEEEEAAgTsJUK7dScam18tQcLfrttLS7ciV1HKzNXg4O3QJbND1dukmP33qO9s0Fp1HAAEEEEDAzAKUa2YG1sThr6fnxsalHopPjY27deSKTN9QVLZbwT5uPYO9e4Z49wr2DvJxY9jesjgsI4AAAgggUHcByrW6G9rWEWRuhjPXM2Pjbx2KS42NT5V74Mr2X8YHkaKtZ3BDqd7a+Xsy2FtZHJYRQAABBBConQDlWu3c2Os/AnKq7eDlWzLXwv6LN+XEm37Ce/1ncs00TOq2YO+Ilj6dm3rJpA6oIYAAAggggEAtBCjXaoHGLpULyAOnUrHtv3Tz14s3Yy7fyswrNGxX39khPKS0bots6StjvPGkgkGGBQQQQAABBKoVoFyrlogNaiMgg72dTEiX0m3fhZt7L6akZhcYjiJzZEW08JHSrU8rX7nvjXvdDDIsIIAAAgggUKkA5VqlLKw0pUBxccmJhPTo8yl7zifLibfs/N+eVAjwcpHzbQPaNurXyrehOzPTm5KdYyGAAAIIaEaAck0zqVRHR2Se08PxqVHnU6LOJx+8nGq4100G5u3crMGANo3kT5dm3OimjmwSJQIIIICAZQQo1yzjTCuVCOTkFx24fHP32eQdZ27I1FiGLTxdHPq1btS/jW//No0CvFwN61lAAAEEEEDANgUo12wz74rrdWJa7s6zN6Ruk+pNnjY1xNfWz+Oudo3ua+/XvXlDhgUxsLCAAAIIIGBTApRrNpVuFXRWnlE4fCV1x+kbUr3JwLwlJf+JuaGb491tG9/b3k/Ounm4OKqgJ4SIAAIIIICAiQQo10wEyWHMIJCanb/zbPKPJ6//cvqG4ZSbo71deIjPve0b39vOr7mPmxma5ZAIIIAAAggoS4ByTVn5IJpKBWQqBRnI7cdTST+cvH7hRpZhm9aN69/Xwe/Bjv6dm3kxIIiBhQUEEEAAAY0JUK5pLKHa787F5Cw53yZ12/5Lt+TKqb7DTbxcBnb0HxTq3yPYm1vctP8loIcIIICAjQlQrtlYwjXU3bTsgl/OJG07cf3nU0mGsdx83J0GdvR7MDRARuJ1cmDaKw3lm64ggAACNixAuWbDyddK12XyK3me9LtjiXLKzXCLm4eLgzxP+kBHfxnIzdXJXit9pR8IIIAAArYoQLlmi1nXap9lDF6Z8+q7YwnfH7+enJmn76aro708lzCsSxOp21wcqdu0mnz6hQACCGhZgHJNy9m12b7JPW2xcbe2HkuUU25XU3P0Dh7ODnJ/29AuAX1b+Trac53UZr8ddBwBBBBQnwDlmvpyRsTGC5SUlBy5kvbNkWvfHElISMvV7yhDuMnNbcO6BMiAIDyXYDwmWyKAAAIIWEuAcs1a8rRrUQGZZj4m7tY3h699ezQhOTNf33YjD+chnUrrtm6BDXU6O4sGRGMIIIAAAggYLUC5ZjQVG2pCQIZw23fx5teHr8l1UsNzCc0auj7arekj3ZuF+Lpropd0AgEEEEBAUwKUa5pKJ50xXiC/sHj3uRtfH07YdjwxK79Iv2PXwAYjujcd2rlJQ3cn4w/FlggggAACCJhVgHLNrLwcXAUCOflF204kfhV7deeZG/phd2WeK5mf9NHuTe9u19jZgYdJVZBEQkQAAQS0LUC5pu380rsaCCRl5G4+dE3qtuPX0vW7ebk6Du0cIHVb9+YNmeSqBpRsigACCCBgUgHKNZNycjBNCJxOzNgYe+XfsdcS0//zMGmwj9vjPQJHdG/m7+WiiS7SCQQQQAABNQlQrqkpW8RqSQEZvG3vhZSNB6/KuLv6Sa7k4dG72jZ+okfgPe0aM8OVJXNBWwgggICNC1Cu2fgXgO5XL5CdX7jlaOKX++N/vXRTv7XMTCpXSKVua+3nUf3+bIEAAggggEDdBCjX6ubH3rYkcOFG5pcHrmw4eOVGxn9muOrWvMHIHoFDuzSp7+xgSxL0FQEEEEDAogKUaxblpjENCMjIbb+cvrH2QPxPp5Lkgqn0SKYlHdI5YHR4826BDXgiQQMppgsIIICA0gQo15SWEeJRjYA8SfrVwatSt124kaUPukOA55jezR/u2pSTbarJIoEigAACahCgXFNDlohRwQIyLWnM5Vtrfo2XmUnzCoslUncn++Hdmo4JD+rQxFPBgRMaAggggIBqBCjXVJMqAlW4QGp2/oaDV1ftu2w42SZ3tknRJiO3uTgy1q7Cs0d4CCCAgKIFKNcUnR6CU52AnGyLvpCyal/c98cSC2/f2SZj7cqAbXKRtGWj+qrrDgEjgAACCChBgHJNCVkgBg0KyJ1t6w5cWb0v7mpqjr57fVr5jI8Ivre9n70M4MYLAQQQQAABowUo14ymYkMEai4gj47uPHtj1d64n05d109I2qyh67iIoJE9mnu5Odb8eOyBAAIIIGCLApRrtph1+mx5gSu3sj/be3nt/vjU7AJpXcb+kMcRJkQGt/VnoF3LZ4MWEUAAAZUJUK6pLGGEq2qBnPyizYevfrLn0qnEDH1HIlr4jI8Mvr8DV0hVnViCRwABBMwrQLlmXl+OjkBFAXkc4deLN1dEXdp24rp+oN2mDVzHRgSN6hnYwM2p4vasQQABBBCwcQHKNRv/AtB9awpcS835fO/lNb/G3frvFdLHwpo90zck2NfdmmHRNgIIIICAwgQo1xSWEMKxPYHcArlCek2ukJ5MSJfe29nVu7+936R+LXoGN2RKK9v7OtBjBBBAoBIByrVKUFiFgOUFSgdsO5+ybPdFmYpU33qXZl7P9GsxONTfwV5n+XhoEQEEEEBAOQKUa8rJBZEgUCpwLilj+e5LGw9e0U9pJbe1TewT/ETPQE8XBv7gG4IAAgjYqADlmo0mnm4rXCAlM+/zvXEroy+lZOVLqDJnvDyIMKFPcLOGbgqPnPAQQAABBEwuQLlmclIOiIDJBOS2tk2xV+UK6bmkTDmoTIfwUJcmUwa0aOfP5PEmQ+ZACCCAgPIFKNeUnyMitHWB4uKSHWdvLNt1Yc+5FL3Fve0aT7urZY9gb1unof8IIICAbQhQrtlGnumlJgSOXklbvOP8lmMJJSWl/ZFHR6Vou7ttYx4g1UR66QQCCCBwRwHKtTvS8AECyhS4mJy1dOf5DTFX84uKJcK2fh5StA3tHMADpMrMF1EhgAACdRegXKu7IUdAwAoC19NzP959UUbZzcovkublAdJn+7d4okegq5O9FaKhSQQQQAABcwpQrplTl2MjYGaBtOyCz/ddlrpN/wCpt7vTxMjgcZHBXq6M+mFmeg6PAAIIWFCAcs2C2DSFgHkE5AHSdTFX5App/M0cacHDxUGKtqf7hjADqXm8OSoCCCBgaQHKNUuL0x4CZhIoLCr+9mjCBz+dO3t71A93J3s5zTapb4hPfWcztchhEUAAAQQsI0C5ZhlnWkHAQgIy6sf3xxMX/HROPwOpq6P9mPDmcltbY08XC0VAMwgggAACphagXDO1KMdDQAECMgPpDyeT3v/p7JEraRKOk4PuyZ6BU+9qGeDlqoDoCAEBBBBAoGYClGs182JrBFQkIEXbjjM33v/pXMzlWxK2k73usR7Npg1oGejNTFYqSiOhIoAAAvUo1/gSIKBxASnaos+nvPfj2X0Xb0pXHXR2j3Zv+sI9rSnaNJ54uocAAhoSoFzTUDLpCgJVCvx68aZcHt11Nlm2kqLt8R6BL9zTqkkDLo9WqcaHCCCAgAIEKNcUkARCQMCCAgfjbv1r+xl90SaXR5/sFfjc3a38eBDBgimgKQQQQKCmApRrNRVjewS0ICBn2t7dfnrvhdLLo84Ouqd6B00d0LKRB0N+aCG59AEBBLQnQLmmvZzSIwSMFYg6n/zutjMHbj+IIEN+jIsMmtK/pUyNYOz+bIcAAgggYBEByjWLMNMIAkoVkAcR5MLoP7efORyfKjHK4LoT+4RM7tfCy41prJSaM+JCAAHbE6Bcs72c02MEKghI0fbTqaR3t585fi1dPpRprCb1bfFMv5D6zg4VtmUFAggggIClBSjXLC1OewgoVkCKtu+PX5//w5lTiRkSpFwVnX53qzG9mzs72Cs2ZgJDAAEEbEGAcs0WskwfEaiBgExjJXOPypm2i8lZslvTBq4v3d/mkW5N7XV2NTgKmyKAAAIImE6Acs10lhwJAQ0JFBQVr4+5ImfarqfnSbdaN67/ygNtB3bws7OjaNNQmukKAgioRIByTSWJIkwErCGQW1D0adSlhb+cT8spkPa7BjZ47cF2ES19rBELbSKAAAK2K0C5Zru5p+cIGCkgtdpHOy8s330xp6BIdunfptHvHmgb2tTLyN3ZDAEEEECgjgKUa3UEZHcEbEUgKSP3g5/Ord4XV1hcIn0e2jng5YFtQ3zdbaX/9BMBBBCwngDlmvXsaRkBFQpcTsmSOaz+ffhaSUnpxKOjw5u/eG9rn/pMh6DCXBIyAgioR4ByTT25IlIEFCNw4lr6P74/9fPpGxKRjM027a6WT/cJcXVivA/FZIhAEEBAWwJVl2s6Izu7cOHCkJAQFxeXsLCwXbt2VbrXqlWrunTp4ubmFhAQMHHixJSUlEo3YyUCCChfoEMTz08m9lo9OTy0qWdmXuE/vj999zu/rDsQX3T7Oqny4ydCBBBAQEsCRpVra9eunTlz5pw5c2JjY/v16zdo0KC4uLhyCrt37x43btwzzzxz/PjxdevW7d+/f9KkSeW24S0CCKhLILKl7+bn+84f2VXGZktMz311/ZGh7+/eeab0lBsvBBBAAAGLCdjJKOfVNhYeHt69e/dFixbpt2zfvv3w4cPnzZtXdsd33nlHNjh//rx+5fvvv//3v/89Pj6+7Dbllqs+71duY94igIAVBfTjfXzw87mM3EIJo19r398Pbt8+wNOKIdE0AgggoCWBqoui6s+u5efnx8TEDBw40IAiy1FRUYa3+oXIyMgrV65s2bJF6r/r16+vX79+yJAh5baRt3l5eRKQ4VVxA9YggIACBVwc7acMaLnz1bvlDjZHezuZM37wgl2vrDuckJajwGgJCQEEENCYQPXlWnJyclFRkZ+fn6HnspyYmGh4q1+Qck3uXRs5cqSTk5O/v3+DBg3kBFu5beStnJPz+u8rMDCw4gasQQABxQo0dHf647AOP8waMKRzgJyXl0kR5IY2eSIhI7d0iF1eCCCAAAJmEqi+XNM3XHZeGjl/VvatfoMTJ07MmDHjj3/8o5yK27p168WLF6dOnVox6NmzZ6f991X1pdKK+7IGAQSUIBDk4/7h6O5fPRfZM7hhbkHxhz+fl6Lti1/jeApBCdkhBgQQ0KRA9feuycVQedhTnh545JFH9AQvvvjioUOHduzYUVZk7Nixubm5spl+pTx5IA8lXLt2TZ4SLbtZ2WW5JCon2qR48/TkDpiyMCwjoA4B+c1t24nrf/vu1IXbU8V3CPCUc2+9WzCBlTrSR5QIIKAogaqLourPrsnFTRm8Y/v27YZeybJc+jS81S9kZ2frdL8dzd6+dHwmY55jKHcc3iKAgFoE5Cz7Ax39t87s/39DO3i6OJxISB+1dO/Uz2LiUrLV0gXiRAABBFQh8FuBVUW4s2bNWrZs2ccff3zy5MmXXnpJRvHQX+iUK5syeId+x2HDhm3cuFEeDr1w4cKePXvkwmivXr2aNGlSxWH5CAEENCDg5KB7pm/IL6/ePbZ3kM6u3tbjife9u+Ov33FDmwZySxcQQEApAg7GBCIPEMiYt3Pnzk1ISAgNDZXHP4OCgmRHeWsYgG3ChAkZGRkffPDByy+/LM8Z3HPPPX/729+MOTjbIICABgS83Z3+NDz0qd5Bf/rmxO5zyYt3nJcHEV59oM1jYYH2UsTxQgABBBCog0D1967V4eDV7Fr1ZdpqduZjBBBQpIDcAvHTqaS3vz158fYNbR2beMqlUm5oU2SuCAoBBBQkUHVRRLmmoFQRCgKaEcgvLF4Zfem9H8/qh9UdFOo/e1D75j5umukgHUEAAQRMK0C5ZlpPjoYAAsYK3MzKf3f76dX74mSiUSd73eT+Ic/f3crNyah7MIxtg+0QQAABTQhQrmkijXQCAdUKnE7M0N/QJj0I8HL5w5AOgzv5Vxy7UbX9I3AEEEDABAKUayZA5BAIIFAXAbmhbfuJ63O/OXHlVumkVREtfN56uGMbP4+6HJN9EUAAAS0JUK5pKZv0BQEVC8g88fLE6KJfzucVFsvjouMjgmfe39rTxVHFXSJ0BBBAwEQClGsmguQwCCBgCoH4m9lvf3vi++PX5WC+9Z1eH9T+0W5NdQz2YQpbjoEAAuoVoFxTb+6IHAHNCuw4c+Otzcf1s1d1a95g7kOhnZp5aba3dAwBBBCoToByrTohPkcAAWsIyGAfn+y5uODHs1n5RXZ29Z7s1fzVgW0bujtZIxbaRAABBKwsUHW5ZtQkVFbuAc0jgIAWBWT2qikDWv70yl3DuzYpKakn433c9c4vn+29XCTDfvBCAAEEECgjwDC5ZTBYRAABKwnsu5DyxubjpxIzpP3OzbzeHh7auVkDK8VCswgggIAVBKo+u0a5ZoWU0CQCCFQUKCwqXrUv7p1tp2UiBLk2KhPGvzywrZcrz41WpGINAghoUKDqco2LoRpMOV1CQI0CDva68ZHBP748QH9tdGX05Xv/uWNT7FUZs02N3SFmBBBAwIQClGsmxORQCCBQV4HGHi7zR3VbPTm8ZSP35My8mWsPjf5o37mkzLoel/0RQAABNQtQrqk5e8SOgEYFIlv6fvdi/1cfaOvsoIu+kDLovZ3/+P5UTn6RRrtLtxBAAIFqBCjXqgHiYwQQsIqAPDcq88H/MGvAve0aFxSVfPjz+fv/tePHk6WD6/JCAAEEbE2Acs3WMk5/EVCTQKC327LxPZaMDWvi5SLzjT7z6YFnVx64mlo68SgvBBBAwHYEKNdsJ9f0FAFVCtjZ2T3Q0f+HlwdMGdDCQWe37cT1+/65Y8mO8/IkqSr7Q9AIIIBAzQUo12puxh4IIGBxATcnh9mD2m95sV+vEO+cgqJ535166IM9h+NTLR4IDSKAAAJWEKBcswI6TSKAQO0E2vh5rH229z8e69zAzfFEQvojC/e89fXxzLzC2h2NvRBAAAG1CFCuqSVTxIkAAqUCcm308R6BP84a8Ei3pjJb1Sd7Lg18d8cPJ3gEga8HAghoWYByTcvZpW8IaFXAp77zv0Z2/eyZXs293a6l5U5aeeC5VTFJ6bla7S/9QgABGxegXLPxLwDdR0DFAv1aN/p+Zv+pA1ra6+y2HE28990dn++9XMwM8SpOKaEjgEDlApRrlbuwFgEEVCHg6mT/+qB2X0/v26WZl0w2+odNxx5fEn3meulU8bwQQAABzQhQrmkmlXQEAdsV6NDEc+Nzfd4Y1sHdyT7m8q0hC3b9c9vp3AJmQbDdrwQ9R0BjApRrGkso3UHARgXkeujEPiHbZw24r33pLAjv/3Ru0Hu7os+n2CgH3UYAAW0JUK5pK5/0BgHbFmjSwPWjcT0Wjene2MP5YnLWkx/tfX3DkfTcAttWofcIIKB6Aco11aeQDiCAQFkBGeljUKcAmQVhTHhzWf/F/vj7GemjLBDLCCCgQgHKNRUmjZARQKA6AU8Xxz8/0knG1A32cbuenicjfcxYE5uSmVfdfnyOAAIIKFGAck2JWSEmBBAwiUB4C5+tM/tP6d9CZ1dv8+Fr9/9rp/wsKSkxycE5CAIIIGAxAco1i1HTEAIIWEHAxdF+9uD2Xz3Xp52/x82sfDnHNnllTGIaA+paIRc0iQACtRagXKs1HTsigIBqBLoENtg8ve9L97VxtLf74eT1+/+144tf4zjNppr8ESgCNi9AuWbzXwEAELANAScH3Yv3tf7mhX5SusmAuq9vPPrU8n1xKdm20Xt6iQAC6hagXFN3/ogeAQRqJNDW32PjtMg5g9u7OOr2nEt5YP7O5bsvFjFvVY0Q2RgBBCwuQLlmcXIaRAABqwrIgLqT+7fY+mL/3i28cwqK/vTNiccXR51LYt4qq2aFxhFAoEoByrUqefgQAQQ0KhDs6756Uu8/PxJa39nhYFzq4AW7l+w4z2k2jWabbiGgegHKNdWnkA4ggEDtBHQ6uzHhQdte6j+gTaP8wuJ5352S02znb2TW7mjshQACCJhPgHLNfLYcGQEEVCAg81atmNjz7yM6e+hPs723a9muC5xmU0HmCBEBWxKgXLOlbNNXBBCoTEDmrXqiZ+DWl/r3a+2bV1j89rcnRy6JlilHK9uWdQgggIAVBCjXrIBOkwggoECBpg1cVz7d6y+PdHJ3sj9w+dag93Z+sudiMQ+NKjBVhISA7QlQrtlezukxAgjcQUBOs40Oby7zVkW29MktKH7r6xOjPtrL2Gx30GI1AghYToByzXLWtIQAAqoQCPR2+/yZ8D8ND3Vzsv/14k0Zm21l9CVOs6kidwSJgFYFKNe0mln6hQACtReQh0bH9g6SsdnCQ0rHZvvjv4+PWbYv/iZTINSelD0RQKAuApRrddFjXwQQ0LJAcx+3NZN7v/VQR1dH++gLKQ/O37lq32VmGtVyyukbAkoVoFxTamaICwEEFCAgp9nGRwZ/92K/nsENs/KL5nx1bMIn+6+n5yogNEJAAAEbEqBcs6Fk01UEEKidgEyBsPbZiD8MaS/zxO84c0PuZvvmyLXaHYq9EEAAgVoIUK7VAo1dEEDA5gTkNNukfi2+faFvaFPP1OyC6atjZ6yJTcsusDkIOowAAtYQoFyzhjptIoCAOgVa+3lsnNZnxj2tZJ74zYevyWm2XWdvqLMrRI0AAmoSoFxTU7aIFQEErC4g10NnDWy7fmpEiK97Ynru2OW//vHfx3Lyi6weGAEggICGBSjXNJxcuoYAAuYS6Na84bcz+o6LCJIGVkZfHrJgV2zcLXM1xnERQMDmBSjXbP4rAAACCNRKwM3JYe7DoTJvlb+ny4XkrMcWR7+77XRBUXGtDsZOCCCAQFUClGtV6fAZAgggULVA/zaNvp/Z/+GuTYqKSxb8dO7RhVHnkjKq3oVPEUAAgZoKUK7VVIztEUAAgf8R8HJzfG9Utw9Gd/NydTx6NW3Igt0f72Zu+P8h4g0CCNRRgHKtjoDsjgACCJQKDO3cZNtL/Qe0aZRXWDz3mxNPLd93LTUHGgQQQMAkApRrJmHkIAgggEA9P0+XFRN7vj08VCatijpfOmnVt0cScEEAAQTqLkC5VndDjoAAAgj8R8DOzu6p3kFbXuzXpZlXem7h86sPvvzl4cy8QoAQQACBughQrtVFj30RQACBSgRkSLb10yKn391KZ1dvw8Erg9/bFXOZYT4qgWIVAggYKUC5ZiQUmyGAAAI1EHC0173yQNsvno1o2sA17mb2E0ui5/9wppBhPmpAyKYIIPCbAOXabxYsIYAAAqYV6BXi/d3MfsNvD/Mx/4ezUrTFpWSbtgmOhgACtiBAuWYLWaaPCCBgNQFPF8f5o7q9N6qrh7PDwbjUwQt2bYi5UlJSYrWAaBgBBFQoQLmmwqQRMgIIqE3g4a5N5fmDnsEN5bGDl9cdnr4mNi27QG2dIF4EELCaAOWa1ehpGAEEbEog0NtNbmV79YG2Djo7GeDjwfd2Rp1PtikBOosAArUWoFyrNR07IoAAAjUTsNfZPX93qw3TIuXR0YS03DHL9s377mR+IdOM1oyRrRGwQQHKNRtMOl1GAAFrCnQJbPDNC31H9QyUG9iW7LjwyMI9529kWjMg2kYAAcULUK4pPkUEiAACmhNwd3b464jOi58Ka+DmePxa+tAFu788EM/zB5rLMx1CwGQClGsmo+RACCCAQI0EHgz13/pi/4gWPjkFRb9bf+TFLw6l5/L8QY0I2RgBWxGgXLOVTNNPBBBQoIC/l8vnk8Ll+QO5rW3z4WtDFuyKjWP+AwUmipAQsLIA5ZqVE0DzCCBg4wL65w++nFI6/0H8zZzHF0cv+uV8cTEDs9n494LuI/A/ApRr/8PBGwQQQMAqAmFBDWVgtiGdAwqLS/629dS4j39NSs+1SiQ0igACChSgXFNgUggJAQRsUcDL1fGDJ7v9bUQnF0fd7nPJg97b9fPpJFuEoM8IIFBBgHKtAgkrEEAAASsJ2NnZjezZXIb5aOfvkZKVP/GT/X/65kReYZGVwqFZBBBQigDlmlIyQRwIIICAXqBVY49Nz/eZEBksb5fvvjhiUdQFBmbjy4GAbQtQrtl2/uk9AggoUsDF0f7NhzouG9ejoZvjsavpQ9/fzcTwikwUQSFgIQHKNQtB0wwCCCBQU4H7Ovh992L/3i28s/OLZGL4l9YeymBgtpoisj0CmhCgXNNEGukEAghoVEAGZls1qfcrA9vIeB+bDl2T02xHr6RptK90CwEE7ihgbLm2cOHCkJAQFxeXsLCwXbt2VXq8vLy8OXPmBAUFOTs7t2zZ8uOPP650M1YigAACCBgvIIXa9HtafzmltwzMdjklW25lW7HnIjNWGQ/IlghoQMCocm3t2rUzZ86UUiw2NrZfv36DBg2Ki4ur2Pknnnjixx9/XL58+enTp9esWdOuXbuK27AGAQQQQKAWAmFB3ltm9BvYwS+/qPjNr09M+/xgWg4zVtUCkl0QUKWAnTG/ooWHh3fv3n3RokX6LrZv33748OHz5s0r2+OtW7eOGjXqwoUL3t7eZdeXW5YzcPLSr0xPTw8MDExLS/P09Cy3GW8RQAABBCoKyP+xV0Rd+suWkwVFJc0aun4wunvXwAYVN2MNAgioTkCKIi8vrzsVRdWfXcvPz4+JiRk4cKCh57IcFRVleKtf2Lx5c48ePf7+9783bdq0TZs2r7zySk5OTrlt5K0UeRKN/iW1WsUNWIMAAgggcCcBGZhtYp+Q9VMjA71dr9ySGauilu26YMxv3Xc6IOsRQEAVAtWXa8nJyUVFRX5+fob+yHJiYqLhrX5Bzqvt3r372LFjX3311fz589evX//888+X20bezp49WypH/Ss+Pr7iBqxBAAEEEKhaoEtgg29e6Dco1F/Osb397cnJK2NSs/Or3oVPEUBA1QLVl2v67smvdIZ+ym9yZd/q1xcXF8vKVatW9erVa/Dgwe++++6KFSsqnmCTpxDk0qfhZTgmCwgggAACxgvIjFULx3Sf+3BHJ3vdDyevD1mw+2DcLeN3Z0sEEFCXQPXlmq+vr729fdnTaUlJSWVPtuk7HBAQIJdB5Sqn/q3c3yZV3ZUrV9TFQbQIIICAWgTkN+RxEcEbn4sM8nG7mprzxOLopTvPFxeXqCV+4kQAAeMFqi/XnJycZPCO7du3Gw4qy5GRkYa3+oU+ffpcu3YtMzNT//bMmTM6na5Zs2blNuMtAggggIAJBUKbeskco0M7BxQWl/xly6lJKw/cyuLCqAmBORQCihCovlyTMGfNmrVs2TIZR+3kyZMvvfSSjOIxdepUWS83oo0bN07fj9GjR/v4+EycOPHEiRM7d+589dVXn376aVdXV0X0kiAQQAAB7Qp4uDi+/2S3Pz8S6uSg++lU0uAFuw5cuqnd7tIzBGxRwMGYTo8cOTIlJWXu3LkJCQmhoaFbtmyRsXBlR3lrGICtfv36ctbthRdekOdDpW6TMdjefvttYw7ONggggAACdRSQC6NjwoO6BTacvvrgheSskUv3vjywzdT+LXW63247rmMT7I4AAlYUMGrcNTPFV/UQI2ZqlMMigAACGhbIzCv8w1dHZboq6eOANo3+NbKrt7uThvtL1xDQjEDVRZFRF0M1Y0FHEEAAAW0L1Hd2kBLtbyM6OTvodpy5MXTBLp4Y1XbG6Z2NCFCu2Uii6SYCCNiKgFwYHdmz+b+n9wnxdb+WljtySfQnzDFqK8mnn5oVoFzTbGrpGAII2LJAO3/PzdP7DO5UOpTuW1+fmL46NiOXOUZt+RtB39UtQLmm7vwRPQIIIHAnAXli9MPR3d8Y1sFBZ/ft0YSHP9hzKjH9ThuzHgEElCxAuabk7BAbAgggUCcBuTAqc4yunRIR4OUiT4wO/3DP+hhGL68TKTsjYBUByjWrsNMoAgggYDmBsKCG387o179No9yC4lfWHX59w5HcgiLLNU9LCCBQZwHKtToTcgAEEEBA8QIynMeKCT1n3d9G5n/+Yn/8owujLqdkKT5qAkQAgf8IUK7xVUAAAQRsQkCGzJ1xb+vPng73cXc6kZA+dMHurccSbaLndBIB9QtQrqk/h/QAAQQQMFqgb2tfuTDaI6hhRl7h1M9j3v7mREFRsdF7syECCFhHgHLNOu60igACCFhLwN/LZc2zvSf3C5EAlu2++OTSvYlpudYKhnYRQMAYAco1Y5TYBgEEENCUgKO9bs6QDoufCvNwdjhw+daQBbt2n03WVA/pDALaEqBc01Y+6Q0CCCBgtMCDof5fv9C3Q4BnSlb+2I/3vf/j2eLiEqP3ZkMEELCcAOWa5axpCQEEEFCaQLCv+8bnIkf1DCwpqffP7Wee/exAWg6THygtS8SDQD3KNb4ECCCAgE0LuDja/3VE57+P6OzkoPvhZNJDH+w+mcDkBzb9laDzChSgXFNgUggJAQQQsLTAEz0DN0yNbNrA9XJK9iML92yKvWrpCGgPAQTuLEC5dmcbPkEAAQRsSaBTM69vXujbr7WvTH4wc+2hNzcfzy9kjA9b+gbQVwULUK4pODmEhgACCFhWoKFMfjCx1wv3tJJmV0RdevKjvdfTGePDsjmgNQQqE6Bcq0yFdQgggICtCtjr7F4e2HbZuB4eLg4xpWN87N57IcVWMeg3AkoRoFxTSiaIAwEEEFCOwH0d/L6e3redv0dyZt6YZfuW7bpQIs+O8kIAASsJUK5ZCZ5mEUAAAWUL6Mf4eLhrk6Likre/PTl9TWxWXqGyQyY6BDQrQLmm2dTSMQQQQKCOAm5ODvNHdn1zWAcHnd23RxKGf7jn/I3MOh6T3RFAoBYClGu1QGMXBBBAwFYE7OzsJvQJ+eLZ3o09nM8mZT78wZ6txxJspfP0EwHFCFCuKSYVBIIAAggoVaBHsPc3M/r2CvHOzCuc+vnBv353qrCIMT6Umi3i0qIA5ZoWs0qfEEAAAVMLNPZwWTUpfFLfEDnw4h3nx338a0pmnqkb4XgIIFC5AOVa5S6sRQABBBAoJ+Bor/vD0A7vP9nNzck+6nzKsPd3H72SVm4b3iKAgDkEKNfMocoxEUAAAc0KDOvSZNPzfUJ83a+l5Y5YHLUh5opmu0rHEFCMAOWaYlJBIAgggIBKBNr4eUjFdk+7xjJL1cvrDst0VQXcyqaS3BGmSgUo11SaOMJGAAEErCng5eooMx/M+O90VU8t2ycD6lozINpGQNMClGuaTi+dQwABBMwmoNPZzRrYdvFTYe5O9vsu3nyIW9nMRs2BEaBc4zuAAAIIIFB7gQdD/f89vU8LbmWrPSF7IlC9AOVa9UZsgQACCCBQhUCrxh6bpve5l1vZqjDiIwTqJkC5Vjc/9kYAAQQQqFfP08XxI25l45uAgNkEKNfMRsuBEUAAAVsS0N/KtmTsb7eyHbmSaksA9BUBMwpQrpkRl0MjgAACtibwQMffbmV7bHE0o7LZ2heA/ppJgHLNTLAcFgEEELBRAW5ls9HE021zClCumVOXYyOAAAI2KfCfW9nubS29XxF1iVHZbPJbQKdNKUC5ZkpNjoUAAgggoBcovZXt/jZyK1t9Zwf9qGzcysZ3A4FaC1Cu1ZqOHRFAAAEEqhGQW9k2PR+pH5Xt8cXRm2KvVrMDHyOAQGUClGuVqbAOAQQQQMBEAoZb2fIKi2euPTTvu5NFxSUmOjaHQcBWBCjXbCXT9BMBBBCwloDcyrZ0XI/n7mopASzZceGZT/en5RRYKxjaRUCNApRraswaMSOAAAIqE7DX2f3uwXYLnuzm4qj75fSNRxbuuXAjU2V9IFwErCdAuWY9e1pGAAEEbEzgoS5N1k+NDPByuXAj6+EP9/xyOsnGAOguArUUoFyrJRy7IYAAAgjUQiC0qdfm6X17BDXMyC18esX+pTvPl5RwK1stINnFtgQo12wr3/QWAQQQsLpAIw/nVZPDR/UMlEcO/rLl1KwvD+cWFFk9KgJAQMkClGtKzg6xIYAAAtoUcHawn/dop7ce6ij3tH0Ve3XkkujEtFxtdpVeIWAKAco1UyhyDAQQQACBGgrY2dmNjwz+7OleDdwcD19Je+iD3QfjbtXwGGyOgK0IUK7ZSqbpJwIIIKBAgchWvpuf79vWzyMpI2/Ukr3rY64oMEhCQsDqApRrVk8BASCAAAI2LdDcx23Dc5EDO/jlFxW/su7wn745UVhUbNMidB6BCgKUaxVIWIEAAgggYFkBmVd08VNhM25PCb9898WJK/anZTOOrmVzQGvKFqBcU3Z+iA4BBBCwDQH9lPCLxnR3dbTfdTb54Q93n0vKsI2u00sEqhegXKveiC0QQAABBCwjMKhTwIZpkU0buF5KyR7+YdSPJ69bpl1aQUDhApRrCk8Q4SGAAAK2JdChiefm6X3CQ7wz8wonrTzAOLq2lX56ewcByrU7wLAaAQQQQMBKAj71nT+fFD46vLnMdyDj6L66/kheIePoWikZNKsMAco1ZeSBKBBAAAEEygg42uv+PDz0zWEddHb1ZHSPp5btS8nMK/M5iwjYlgDlmm3lm94igAACahGQcXQn9AlZMbGXh4vD/ku3Hvpgz6nEdLUET5wImFaAcs20nhwNAQQQQMCUAv3bNPrquT7BPm5XU3NGLIz64QQPH5iSl2OpRYByTS2ZIk4EEEDARgVaNa6/6fk+kS19svKLJn92YMmO8yVyUxsvBGxJgHLNlrJNXxFAAAF1CjRwc/r06V5jbj98MO+7U6+s4+EDdSaSqGsrQLlWWzn2QwABBBCwoIA8fPD28NC3Hupor7PbcPDKmI/2JfPwgQX9acq6ApRr1vWndQQQQAABYwXk4YPxkcErJvaUhw8OXL71MA8fGCvHdqoXoFxTfQrpAAIIIGBTAv1a8/CBTSWczpYKUK7xPUAAAQQQUJlAuYcPFvPwgcoSSLg1FqBcqzEZOyCAAAIIWF1A//DBU71LZz7463enXl53mJkPrJ4UAjCfAOWa+Ww5MgIIIICAGQVuP3zQae7DpQ8fbDx4lYcPzGjNoa0tQLlm7QzQPgIIIIBAHQTGRZQ+fOD534cPTiYw80EdNNlVqQKUa0rNDHEhgAACCBgnUPrwwfN9QnzdS2c+WMTMB8apsZWqBCjXVJUugkUAAQQQqEygZaP6Xz0X2aeVT/btmQ+W7brAzAeVObFOrQKUa2rNHHEjgAACCJQVkIcPZD740bdnPnj725NzNh0rKCouuwHLCKhXgHJNvbkjcgQQQACB/xGQhw/+PDz0D0Pa29nVW70v7ukV+9NyCv5nC94goE4ByjV15o2oEUAAAQQqE5CZDyb1a7F0bA83J/tdZ5PlVra4lOzKNmQdAmoSoFxTU7aIFQEEEEDAGIH7O/itmxrh7+lyLilz+MI9By7dNGYvtkFAsQKUa4pNDYEhgAACCNReoGMTr39P79OpqdfNrPzRH+3bFHu19sdiTwSsLUC5Zu0M0D4CCCCAgHkE/Dxd1k7p/UBHv/yi4plrD727/QyPi5pHmqOaXcDYcm3hwoUhISEuLi5hYWG7du2qIq49e/Y4ODh07dq1im34CAEEEEAAAQsIuDk5LBoTNnVAS2lrwY9nZ3xxKLegyALt0gQCphUwqlxbu3btzJkz58yZExsb269fv0GDBsXFxVUaR1pa2rhx4+69995KP2UlAggggAACFhbQ6exeH9Tu7yM6O+jsvj58bfRHe5Mz8ywcA80hUEcBO2PODIeHh3fv3n3RokX6xtq3bz98+PB58+ZVbHvUqFGtW7e2t7fftGnToUOHKm6Qd/ulX5+enh4YGCgVnqenZ8UtWYMAAggggIAJBaLPp0z9PEaG9mjW0PXjCT3b+HmY8OAcCoE6CkhR5OXldaeiqPqza/n5+TExMQMHDjTEIctRUVGGt4aFTz755Pz582+88YZhTcUFKfIkGv1LarWKG7AGAQQQQAABcwhEtPSRmQ+Cfdyu3MoZsTBqx5kb5miFYyJgDoHqy7Xk5OSioiI/Pz9D87KcmJhoeKtfOHv27Ouvv75q1Sq5ca3cR2Xfzp49WypH/Ss+Pr7sRywjgAACCCBgVoEWpXNV9ekV4p2RVyiD6H4WfcmszXFwBEwlUH25pm9JBh40NCnXT8u+lfVSz40ePfqtt95q06aNYbNKF5ydneXSp+FV6TasRAABBBBAwEwCDd2dPn8m/LGwZkXFJf/37+Nvbj4uC2Zqi8MiYCqBqs6E6dvw9fWVe9HKnk5LSkoqe7JNNsvIyDhw4IA8iDB9+nR5W1xcLCWdnGbbtm3bPffcY6pYOQ4CCCCAAAJ1F3By0P3jsc4tGrn/fevpFVGX4m5mL3iyW33n6v9BrHvTHAGB2glUf3bNyclJBu/Yvn27oQFZjoyMNLyVBTlbdvToUXm2QP+aOnVq27ZtZVmeUSi7GcsIIIAAAggoQUCuET13V6tFY7q7OOp+OpX02KKoq6k5SgiMGBCoVMCoXyZmzZo1duzYHj16RERELF26VEbxkIJMDic3ol29enXlypU6nS40NNTQQOPGjWWEtrJrDB+xgAACCCCAgEIEBnUKaNLAddLKA6cSM4Z/uOfj8T07NfNSSGyEgUBZgerPrsnWI0eOnD9//ty5c2Xw2507d27ZsiUoKEjWJyQk3GkAtrJtsIwAAggggIAyBboENtj0fJ92/h43MvKeWBK9/cR1ZcZJVDYuYNS4a2YyqnqIETM1ymERQAABBBAoJ5CRW/D86tidZ27IY3V/HNphYp+QchvwFgFzC1RdFBl1ds3cIXJ8BBBAAAEErCjg4eK4fHyPJ3s1Lymp99bXJ3hc1Iq5oOlKBSjXKmVhJQIIIICAbQk42uv+8kjo7EHtpNvyuOiUz2Ky8wtti4DeKliAck3BySE0BBBAAAELCsjjolMGtPxwdHcZ6eOHk9dHLtmblJ5rwfZpCoE7ClCu3ZGGDxBAAAEEbFBgSOeANZN7e7s7Hb2a9sjCqNOJGTaIQJeVJkC5prSMEA8CCCCAgJUFwoIayuyiMo6uDMYmQ7LtOsvsolbOCM1TrvEdQAABBBBAoLxAkI/7xmmR+tlFJ36yf+3+uPJb8B4BCwpQrlkQm6YQQAABBNQj0MDN6bNnej3SrWlhcclrG47+fespmWFRPeETqaYEKNc0lU46gwACCCBgQgFnB/t3n+gy497WcsyFv5yf8UVsbkGRCY/PoRAwUoByzUgoNkMAAQQQsEUBeVx01v1t3nm8i4PO7psjCU8t23czK98WIeizVQUo16zKT+MIIIAAAmoQeCys2cqne3m4OBy4fOvRhXsuJmepIWpi1I4A5Zp2cklPEEAAAQTMJxDZylceF23W0PVSSvYjC/fsv3TTfG1xZATKCVCulQPhLQIIIIAAApULtGrs8dVzfWRW+NTsgjEf7fv3oauVb8daBEwtQLlmalGOhwACCCCgXYFGHs5fTO79QEe//KLiF7849OHP50pknlFeCJhZgHLNzMAcHgEEEEBAWwKuTvYLx4RN7hci3frH96df23CkoKhYW12kN4oToFxTXEoICAEEEEBA4QL2Ors5Qzr86eGOOrt6Xx64IuPoZuQWKDxmwlO1AOWaqtNH8AgggAACVhMYGxG8bHwPNyf73eeSH18cnZjGfPBWy4XmG6Zc03yK6SACCCCAgLkE7mnnt/bZCN/6zqcSM+Rx0VOJ6eZqiePatgDlmm3nn94jgAACCNRNoFMzLxngo2Uj94S03McXRUedS67b8dgbgUoEKNcqQWEVAggggAACxgsEerttnNZHPx/8+E9+3XjwivH7siUCxghQrhmjxDYIIIAAAghUJeDl5ijzwQ/tHFBQVDLry8Mf/HSWAT6q8uKzGgpQrtUQjM0RQAABBBCoTEDmg18wqtuUAS3kw3e2nfn9V0cLGeCjMijW1UKAcq0WaOyCAAIIIIBAJQI6nd3sQe3n3h7gY82v8ZNWHsjKK6xkO1YhUEMByrUagrE5AggggAACVQqMiwhe/FSYi6Pul9M3Ri6NTspggI8qvfjQCAHKNSOQ2AQBBBBAAIGaCAzs6L9mcm8fd6djV9Mf+TDqXFJGTfZmWwTKC1CulRfhPQIIIIAAAnUX6Na84cbnIkN83a+m5jy6MGrfhZS6H5Mj2KwA5ZrNpp6OI4AAAgiYVyDIx33DtMjuzRuk5xaOXf7r5sPXzNseR9euAOWadnNLzxBAAAEErC3g7e60enLvBzv65xcVz1gTu2THeQb4sHZOVNk+5Zoq00bQCCCAAAJqEXBxtP9wTPeJfYIl4Hnfnfrjv48XFZeoJXjiVIgA5ZpCEkEYCCCAAAKaFbDX2b0xrOP/De1gZ1fvs72Xp3wWk5NfpNne0jEzCFCumQGVQyKAAAIIIFBB4Jm+IQtHd3dy0P1w8vqoj/YmZ+ZV2IQVCFQuQLlWuQtrEUAAAQQQMLnAoE4BqyeFN3BzPByfKo+LXriRafImOKAmBSjXNJlWOoUAAgggoFCBHsHe8rhooLdr3M3sEYuiYi7fVGighKUkAco1JWWDWBBAAAEEbECgZaP6G6f16dLM61Z2wZMf7dt6LMEGOk0X6yRAuVYnPnZGAAEEEECgFgKNPJzXPNv7vvaN8wuLp606+GnUpVochF1sR4ByzXZyTU8RQAABBBQk4ObkIFOLjglvXlJS743Nx/+29RRDsikoPQoLhXJNYQkhHAQQQAABmxFwsNe9PTz0lYFtpMeLfjn/8peH5WSbzfSejtZAgHKtBlhsigACCCCAgGkF7Ozspt/T+h+PdZax2TbGXn3m0/2ZeYWmbYKjaUCAck0DSaQLCCCAAALqFni8R+Cy8T3cnOx3nU0euSQ6KSNX3f0helMLUK6ZWpTjIYAAAgggUHOBu9s2XjO5t4+70/Fr6TIk23mGZKu5oYb3oFzTcHLpGgIIIICAmgS6BDbY+FxkkI/blVs5jy2KOhh3S03RE6s5BSjXzKnLsRFAAAEEEKiJQJCPuwyiqx+SbfRHe7efuF6TvdlWswKUa5pNLR1DAAEEEFCjgG/90iHZ7m7bKLegeMpnB1bvi1NjL4jZtAKUa6b15GgIIIAAAgjUVUCGZPtoXI8nejQrLqn3+6+Ovrv9DEOy1dVU5ftTrqk8gYSPAAIIIKBFARmS7W8jOs+4t7V0bsGPZ1/fcLSwiCHZtJhp4/pEuWacE1shgAACCCBgWQEZkm3W/W3+8kgnnV29tQfiJ688kJ3PTH4qXgAAHyFJREFUkGyWzYFiWqNcU0wqCAQBBBBAAIEKAqPDmy8d28PFUffz6RtPLt2bnJlXYRNWaF+Ack37OaaHCCCAAAKqFrivg9/qyb0bujkevpImA3xcTslSdXcIvhYClGu1QGMXBBBAAAEELCrQvXnD9dMimzV0vZSSLYPoHrmSatHmaczaApRr1s4A7SOAAAIIIGCEQMtG9WUQ3Y5NPFOy8kct3fvz6SQjdmITjQhQrmkkkXQDAQQQQEDzAo09XNZOiejX2jc7v2jSpwfWHYjXfJfpoF6Aco1vAgIIIIAAAqoRqO/ssHx8z0e7NS0qLnl1/ZEPfjrLkGyqSV4dAqVcqwMeuyKAAAIIIGBxAScH3T+f6PLcXS2l5Xe2nfnDpmNSulk8Chq0qADlmkW5aQwBBBBAAIG6C8iQbL97sN1bD3W0s6u3al/c1M9jcvKL6n5YjqBYAco1xaaGwBBAAAEEEKhKYHxk8KIx3eVkm8wEP3b5vtTs/Kq25jM1C1CuqTl7xI4AAgggYNsCD4YGrJoU7unicODyrccXRyek5di2h2Z7T7mm2dTSMQQQQAABWxDoGey9bmqkv6fL2aTMEQujzl7PsIVe21ofKddsLeP0FwEEEEBAawJt/T02PBfZspH7tbTcxxZHx1y+qbUe2nx/KNds/isAAAIIIICA+gWaNnBdPzWyW/MGaTkFY5bt++HEdfX3iR78JkC59psFSwgggAACCKhXoKG70+pJve9p1zi3oHjK5zFfMoiuenNZIXLKtQokrEAAAQQQQECdAq5O9kvGhj0W1kxGYvvd+iMf/nyOQXTVmcnyUVOulRfhPQIIIIAAAuoVcLTX/eOxzvpBdP/x/em3vj5RzCC66k3nfyOnXPuvBP9FAAEEEEBAEwL6QXTfGNZBBtFdEXXphS9i8woZRFfdqaVcU3f+iB4BBBBAAIFKBSb2CVkwqpujvd23RxImfrI/I7eg0s1YqQoByjVVpIkgEUAAAQQQqLHAsC5NPpnQy93JPup8ysgle5Mycmt8CHZQhgDlmjLyQBQIIIAAAgiYQaBva9+1UyJ86zudSEgfsSjqUnKWGRrhkGYXoFwzOzENIIAAAgggYEWB0KZeG6ZFBvm4xd/MkYrt6JU0KwZD07UToFyrnRt7IYAAAgggoBqBIB93GUQ3tKlnSlb+qKXRu87eUE3oBHpbgHKNLwICCCCAAALaF2jk4fzFsxF9Wvlk5Rc9vWL/vw9d1X6fNdRDyjUNJZOuIIAAAgggcGeB+s4OH0/oKc8fFBSVvPjFoeW7L955Wz5RlgDlmrLyQTQIIIAAAgiYT8DZwf69kV0n9gmWJv70zYl5351k2gPzaZvwyJRrJsTkUAgggAACCChdQKez++PQDq892E4CXbLjwsvrDhcUFSs9aJuPj3LN5r8CACCAAAII2JiATHsw7a6WMleVvc5u48Grk1ceyM4vtDEDlXWXck1lCSNcBBBAAAEETCLweI/Aj8aFuTjqfjl9Y/RH+25m5ZvksBzEHALGlmsLFy4MCQlxcXEJCwvbtWtXxVA2btx4//33N2rUyNPTMyIi4vvvv6+4DWsQQAABBBBAQDkC97TzWz25dwM3x0PxqY8tjrpyK1s5sRFJWQGjyrW1a9fOnDlzzpw5sbGx/fr1GzRoUFxcXNmjyPLOnTulXNuyZUtMTMzdd989bNgw2bjcNrxFAAEEEEAAAUUJdG/ecP3UiCZeLhduZMkguqcS0xUVHsHoBeyMeSQkPDy8e/fuixYt0u/Tvn374cOHz5s3rwrEjh07jhw58o9//GO5bfJuv/Qr09PTAwMD09LS5IRcuc14iwACCCCAAAIWE0hIyxn/8a9nrmd6uDgsH9+zV4i3xZqmIb2AFEVeXl53KoqqP7uWn58vJ8wGDhxoAJXlqKgow9uKC8XFxRkZGd7elSRbijyJRv+SWq3ivqxBAAEEEEAAAQsLBHi5rpsS2TO4YUZu4djl+344cd3CAdBc1QLVl2vJyclFRUV+fn6GA8lyYmKi4W3FhX/+859ZWVlPPPFExY9mz54tlaP+FR8fX3ED1iCAAAIIIICA5QW83Bw/eyb8vvaN8wqLp3wes+4A/0ZbPgl3bLH6ck2/qzz0aziGXD8t+9awXr+wZs2aN998U253a9y4cbmP5K2zs7Nc+jS8Km7AGgQQQAABBBCwioCLo/3ip8IeC2tWVFzy6vojS3act0oYNFpRoPpyzdfX197evuzptKSkpLIn28oeVKq0Z5555ssvv7zvvvvKrmcZAQQQQAABBJQv4GCvk/HYpvRvIaHO++7UX7Yw7YEiklZ9uebk5CSDd2zfvt0QryxHRkYa3hoW5LzahAkTVq9ePWTIEMNKFhBAAAEEEEBARQJyAW324PazB5VOe7B054VX1h0pZNoDa+fPwZgAZs2aNXbs2B49esiAakuXLpVRPKZOnSo7yo1oV69eXblypSxLrTZu3Lj33nuvd+/e+lNxrq6u8kiBMcdnGwQQQAABBBBQlMCUAS293Z1e33h0w8Erqdn5H4zu7upkr6gIbSqY6s+uCYcMyTF//vy5c+d27dpVxleTwdWCgoJkfUJCgmEAtiVLlhQWFj7//PMB/329+OKLNkVJZxFAAAEEENCSgEx7sOSpMGcH3Y+nksZ9vC8tu0BLvVNXX4wad81MXap6iBEzNcphEUAAAQQQQMB4gf2Xbj69Yr8M8NHO3+PTp3v5eboYvy9bGi9QdVFk1Nk14xtjSwQQQAABBBDQkkDPYO8vp0Q09nA+lZgh0x5cTM7SUu/U0hfKNbVkijgRQAABBBCwjkD7AM8N0yKDfdyu3Mp5bFHUsatp1onDhlulXLPh5NN1BBBAAAEEjBMI9HZbPy0ytKlnSlb+qKV7o84lG7cfW5lGgHLNNI4cBQEEEEAAAW0L+NZ3XjO5d0QLn8y8wgmf7P/uaIK2+6uo3lGuKSodBIMAAggggIByBTxcHD+Z2HNQqH9+UfFzqw+u2ndZubFqKzLKNW3lk94ggAACCCBgTgGZqErGYBsd3rykpN6cr469/+NZmZrSnA1y7FIByjW+BwgggAACCCBQAwF7nd2fh4fOuKeV7PPP7Wfe+vpEcTEVWw0Aa7Ep5Vot0NgFAQQQQAABmxaQiapmDWz75rAOorAi6tLMtYfyC4ttWsTMnadcMzMwh0cAAQQQQECjAhP6hLw3qquDzm7z4WuTVh7Izi/UaEet3y3KNevngAgQQAABBBBQqcDDXZsun9DT1dF+55kboz/adysrX6UdUXjYlGsKTxDhIYAAAgggoGiBAW0arZ4c3sDN8VB86uNLoq+l5ig6XHUGR7mmzrwRNQIIIIAAAooR6Na84fqpEQFeLueSMmWiqnNJGYoJTSOBUK5pJJF0AwEEEEAAASsKtGrsIdMetGzknpCW+9ji6Ni4W1YMRntNU65pL6f0CAEEEEAAASsING3gum5qZJfABqnZBXIf244zN6wQhEabpFzTaGLpFgIIIIAAAhYX8HZ3Wj0pvF9r35yCokmf7v/3oasWD0GbDVKuaTOv9AoBBBBAAAGrCLg7Oywf33NYlyYFRSUyHtuKPRetEobGGqVc01hC6Q4CCCCAAAJWFnBy0L03suv4iCCZnurNr0/8c9tpJqqqY0oo1+oIyO4IIIAAAgggUF5Ap7N786GOL9/fRj54/6dzf9h0rIiJqsoj1eA95VoNsNgUAQQQQAABBIwUkImqXri39Z8fCbWzq7dqX9yLX8QyUZWRdBU3o1yraMIaBBBAAAEEEDCNwJjwoPef7OZob/fNkYRnPt3PRFW1Y6Vcq50beyGAAAIIIICAUQJDOzeRhw9koqpdZ5PHLNuXms1EVUa5ld2Icq2sBssIIIAAAgggYHqB/m0arZoc7uXqGBuX+sSS6MS0XNO3oekjUq5pOr10DgEEEEAAAWUIdG/ecN3UCD9P5zPXMx9bHHUxOUsZcakjCso1deSJKBFAAAEEEFC7QBs/j/VTI4N93K7cynl8cdSxq2lq75HF4qdcsxg1DSGAAAIIIGDrAoHebjJRVYcAz+TM/CeX7t13IcXWRYzrP+WacU5shQACCCCAAAKmEGjk4fzFlN69Qrwz8grHffzrDyeum+KoGj8G5ZrGE0z3EEAAAQQQUJqAp4vjyqd73de+cV5h8ZTPYzbEXFFahEqLh3JNaRkhHgQQQAABBLQv4OJov/ipsEe7N5XZDl5ed3j5bqYWrSrplGtV6fAZAggggAACCJhJwMFe985jXZ7uEyLH/9M3TC1aFTPlWlU6fIYAAggggAAC5hOQqUX/b2j7VwYytWg1xpRr1QDxMQIIIIAAAgiYT0CmFp1+T+u3hzO1aFXGlGtV6fAZAggggAACCFhA4KneTC1aFTPlWlU6fIYAAggggAAClhGQqUWXMbXoHawp1+4Aw2oEEEAAAQQQsKzAAKYWvQM45dodYFiNAAIIIIAAAhYXYGrRSskp1yplYSUCCCCAAAIIWEeAqUUrulOuVTRhDQIIIIAAAghYU4CpRcvpU66VA+EtAggggAACCFhf4D9TiwYztWhpLijXrP+NJAIEEEAAAQQQqChQOrXoM0wtWgpDuVbx68EaBBBAAAEEEFCEgEwtukimFu1m61OLUq4p4utIEAgggAACCCBQqYCjTC36uK1PLUq5Vul3g5UIIIAAAgggoBQB/dSiL99vu1OLUq4p5btIHAgggAACCCBwJwGZWvSFe1v/yVanFqVcu9MXg/UIIIAAAgggoCyBsb2DFozq5mhv982RhGc+3Z+dX6is+MwWDeWa2Wg5MAIIIIAAAgiYWmBYF1ucWpRyzdTfI46HAAIIIIAAAuYUkKlFP58U7uXqGBuX+sSS6MS0XHO2pohjU64pIg0EgQACCCCAAALGC4QFNfxySkRjD+cz1zMfWxx1MTnL+H3VuCXlmhqzRswIIIAAAgjYukBbf48N0yKDfdyu3Mp5fHHU8WtpGhahXNNwcukaAggggAACWhbQTy3aPsAzOTN/1JK9+y6kaLW3lGtazSz9QgABBBBAQPsCpVOLPtu7l9anFqVc0/5XmR4igAACCCCgYQF55kCmFr23XeO8wuIpn8dsPHhFe52lXNNeTukRAggggAACtiUgU4suHvufqUVnfXn4kz0XNdZ/yjWNJZTuIIAAAgggYIsC+qlFJ0QGS+ff+vrEv7afKSkp0QwE5ZpmUklHEEAAAQQQsGkBmVr0jWEdXrqvdGrR9348++bm48XFGqnYKNds+ptN5xFAAAEEENCSgEwt+uJ9rd96qKN06tPoy7O+PFRQVKyBDlKuaSCJdAEBBBBAAAEEfhMYHxk8f2RXB53dpkPXpnwWk1tQ9Ntn6lyiXFNn3ogaAQQQQAABBO4sMLxb06XjwpwddD+dShq3/Nf03II7b6uCTyjXVJAkQkQAAQQQQACBmgrc087vs2fCPZwdfr10UwbRvZGRV9MjKGd7yjXl5IJIEEAAAQQQQMCUAr1CvNc829u3vtOJhHSZqCr+ZrYpj27BY1GuWRCbphBAAAEEEEDAsgKhTb3WTY1s2sD1Ukr244ujz17PsGz7pmmNcs00jhwFAQQQQAABBJQpEOLrvn5aROvG9RPTcx9fEn0oPlWZcVYRFeVaFTh8hAACCCCAAAJaEAjwcv1ySkSXwAap2QWjP9q751yyunpFuaaufBEtAggggAACCNRGoKG706pJ4X1a+WTnF038ZP/WYwm1OYqV9qFcsxI8zSKAAAIIIICAZQXqOzt8PKHngx3984uKn1t18Mv98ZZtv/atUa7V3o49EUAAAQQQQEBdAs4O9h+M7jayR6BMT/W7DUeW7jyvivgp11SRJoJEAAEEEEAAAdMIONjr/jqi05T+LeRwf9ly6u9bTyl/MnjKNdPknqMggAACCCCAgFoEZGrR2YPbv/ZgOwl44S/n52w6VqTsyeAp19Ty1SJOBBBAAAEEEDClwLS7Wv7lkU52dvVW74ub8UVsfqFyJ4OnXDNl4jkWAggggAACCKhIYHR48/ef7OZob/ftkYRnPt2fnV+ozOAp15SZF6JCAAEEEEAAAUsIDO3cZNn4nq6O9rvOJj+1bF9qdr4lWq1hG5RrNQRjcwQQQAABBBDQlsCANo0+nxTu5ep4MC515JK9Sem5Susf5ZrSMkI8CCCAAAIIIGBpgbCghjLtQWMP59PXM0YsjrqckmXpCKpsj3KtSh4+RAABBBBAAAHbEGjr77F+amRzb7f4mzmPLY4+lZiunH4bW64tXLgwJCTExcUlLCxs165dlXZgx44d8qls06JFi8WLF1e6DSsRQAABBBBAAAFlCjT3cVs/NaKdv8eNjLwnFkfHXL6pkDiNKtfWrl07c+bMOXPmxMbG9uvXb9CgQXFxceU6cPHixcGDB8unss3vf//7GTNmbNiwodw2vEUAAQQQQAABBJQs0NjTZe2zEXJtND23cMyyfb+cTlJCtHbGjOQbHh7evXv3RYsW6SNu37798OHD582bV7YDr7322ubNm0+ePKlfOXXq1MOHD0dHR5fdRpbzbr/0K9PT0wMDA9PS0jw9PcttxlsEEEAAAQQQQMBaAjKix7TPD+44c0PG+Hj3ia7DujQxdyRSFHl5ed2pKKr+7Fp+fn5MTMzAgQMNgcpyVFSU4a1+QSqzsts88MADBw4cKCgoKLeZFHkSjf4ltVq5T3mLAAIIIIAAAghYXcDNyeGjcT2Gdg4oKCr5eM9Fq895UH25lpycXFRU5OfnZ7CT5cTERMNb/YKsKbdNYWGh7Ftus9mzZ0vlqH/Fx8eX+5S3CCCAAAIIIICAEgScHHTvjer28v1tPh7f015nZ92QHIxsXmbXMmwp10/LvjWsL7tSf4217Br9Zs63X4ZdWEAAAQQQQAABBJQpIFXaC/e2VkJs1Z9d8/X1tbe3L3s6LSkpqeyJNH03/P39y23j4ODg4+OjhE4SAwIIIIAAAgggoF6B6ss1JycnGZ5j+/bthk7KcmRkpOGtfiEiIqLsNtu2bevRo4ejo2O5zXiLAAIIIIAAAgggUCOB6ss1OdysWbOWLVv28ccfy4OfL730koziIQ9+ynq5EW3cuHH69mTN5cuXZUvZRrZcvnz5K6+8UqNQ2BgBBBBAAAEEEECgooBR966NHDkyJSVl7ty5CQkJoaGhW7ZsCQoKkmPJW8MAbDKIrqyXYu7DDz9s0qTJggULRowYUbE91iCAAAIIIIAAAgjUSMCocddqdETjN656iBHjj8OWCCCAAAIIIICAqgWqLoqMuhiq6v4TPAIIIIAAAgggoGoByjVVp4/gEUAAAQQQQED7ApRr2s8xPUQAAQQQQAABVQtQrqk6fQSPAAIIIIAAAtoXoFzTfo7pIQIIIIAAAgioWoByTdXpI3gEEEAAAQQQ0L4A5Zr2c0wPEUAAAQQQQEDVApRrqk4fwSOAAAIIIICA9gUo17SfY3qIAAIIIIAAAqoWoFxTdfoIHgEEEEAAAQS0L0C5pv0c00MEEEAAAQQQULUA5Zqq00fwCCCAAAIIIKB9AQcrdrGkpERalzlNrRgDTSOAAAIIIIAAAlYX0JdD+tKoYjDWLNcyMjIkoMDAwIphsQYBBBBAAAEEELA1ASmNvLy8Kvba7k51XMVNTb6muLj42rVrHh4ednZ2Jj942QNKxSpFYXx8vKenZ9n1LCtKgDQpKh13CoY03UlGUetJk6LScadgSNOdZBS13mJpknpMarUmTZrodJXcqGbNs2sSULNmzSyWFanVKNcspl3rhkhTreksuSNpsqR2rdsiTbWms+SOpMmS2rVuyzJpqvS8mj7mSiq4WneGHRFAAAEEEEAAAQRMLkC5ZnJSDogAAggggAACCJhSwP7NN9805fGUeix7e/u77rrLwcGaF3+VaqOguEiTgpJx51BI051tFPQJaVJQMu4cCmm6s42CPlFCmqz5qIGCUkEoCCCAAAIIIICAUgW4GKrUzBAXAggggAACCCBwW4ByjS8CAggggAACCCCgaAHKNUWnh+AQQAABBBBAAAHKNb4DCCCAAAIIIICAogUo1xSdHoJDAAEEEEAAAQRsolxbuHBhSEiIi4tLWFjYrl27yLpVBObNm9ezZ0+Zc6xx48bDhw8/ffq0IQyZeUMGlJGZN1xdXWW8lePHjxs+ysvLe+GFF3x9fd3d3R966KErV64YPmLB3AKSMpkgbubMmfqGSJO5wWt0/KtXrz711FM+Pj5ubm5du3aNiYkhTTUCtMDGhYWFf/jDH+RfH/k/W4sWLebOnStTL5ImC8hX28TOnTuHDRsm/+jI/+I2bdpk2L52/5e7devW2LFjZUICeclCamqq4YCmXJDgtP364osvHB0dP/rooxMnTrz44ovyr/7ly5e13WVl9u6BBx745JNPjh07dujQoSFDhjRv3jwzM1Mf6l//+lcp4zZs2HD06NGRI0cGBATIHG36j6ZOndq0adPt27cfPHjw7rvv7tKli/wfUJkd1FhUv/76a3BwcOfOneVvDWlSWnJv3rwZFBQ0YcKEffv2Xbx48Ycffjh37hxpUlqa3n77bamnv/nmG8nRunXr6tevP3/+fNKkhDRt2bJlzpw58o+OlFNfffWVIaTa/WP04IMPhoaGRt1+ycLQoUMNBzThQj0THkuZh+rVq5f8k2+IrV27dq+//rrhLQtWEUhKSpK/JDt27JDW5ddNf39/+UuijyQ3N1d+QVm8eLG8ld9RpNSWglv/kZxOkHlmt27dqn/LT/MJyDTDrVu3lip5wIAB+nKNNJlPuxZHfu211/r27VtxR9JU0cSKa+T30qefftoQwKOPPionROUtaTKYWH2hbLlWu7zImSA5yN69e/V9iY6OlrenTp0yedc0fjE0Pz9frhEMHDhQ+PQvWZYK+L/v+K91BNLS0qRhb29v+Sm/dyYmJhpy5OzsLCWCPkeSu4KCAsNHcuJa/xuMdYK2pVaff/55+ZfmvvvuM3SaNBkolLCwefPmHj16PP7443JrQbdu3eTqgT4q0qSE7BhikJL6xx9/PHPmjKw5fPjw7t27Bw8eLMukyUCkqIXa5UXqMznFEB4eru9L79695a05ygyNT8qUnJxcVFTk5+dn+E7IshQHhrcsWF5AfueYNWuW/I9Mai9pXZ+OcjmSC9b6j5ycnBo2bGgIkvQZKMy3IKcz5dLz/v37yzZBmspqWH35woULixYtkr9Hv//97+Wy9YwZM+T3nHHjxpEmq6embAByElR+NZVLOjKFkfxL9Oc///nJJ5+UDUhTWSXlLNcuL7KX/NZUthfyVn+osivrvqzxck0PJPcSGqSkVij71rCeBYsJTJ8+/ciRI/KLZtkWyyalihxV8VHZo7Fca4H4+Hi5+rlt2zZ5NKfiQUhTRROrrJGrNnJ27S9/+Yu0LmfX5Okcqd6kXNMHQ5qskpSKja5du/bzzz9fvXp1x44d5Z5deWpHLhGMHz+eNFW0Us6aWvz1KbuLdMRM/05p/GKoPFEov9aUrXPlrqmyJ3KU8xWxkUjkMU+5jvPzzz83a9ZM32W5cU0WKs2RfCSXs+WhGwMO6TNQmGlBLkALsjxD7XD7JfcXLliwQBb1f2tIk5nYa3pYeRynQ4cOhr3at28fFxcnb/nbZDBRwsKrr74qt0qPGjWqU6dO8sDgSy+9JE9bkyYlpKbSGGr310f2un79etkD3rhxwxxlhsbLNbmUJv/wyB3TBkpZjoyMNLxlwWIC8guHnFfbuHHjTz/9JE+2G9qVZfm6G3Ik9ZmUCPocSe7kUQPDRwkJCfJgKekz0Jlj4d5775Xnc+VMgP4lp3DGjBkjyzIMAWkyB3jtjtmnT5+yQ+HI3VHyoKgcir9NtfM0017Z2dnydJTh4HLuQE6LkiYDiNIWavfXJyIiQi55yz0J+u7Iw9ry1iz/Tsk/otp+6QfyWL58uTy+IeeiZSCPS5cuabvLyuzdtGnT5AbMX375Raou/Uv+X6YPVR4LlY+kkpNCQe7tKDeQh5yHk3EK5G6qe+65h4E8LJxcw5Oh0i5psjB+Fc3Jvw1yylPuhTp79uyqVatk6DW56KbfnjRV4Wbhj+S6p4xDpB/IQ/7/Jld7fve735EmC2eh0ubk4ffY2y+psd59911Z1I/wVbu/PjKQh4x5JM8cyEvOpDKQR6XmRq388MMP5VdPOdPWvXt3/eARRu3GRiYVqPiLlAzDpm9BfuN84403/r+dO0ZBGAqCAIoXy0FzjZwrdVoHhFFSiWCyxbNaEc36luCQfH8u3mS59LIsCW098nEcuSaX/5Bmn8mcA7nj05cUFwh8xjVjugD8+0Ns25Y/6+SUyUr2dV37RmMqxe1F9o/MStDsMZmVoLk+nY2+su/3qytjunc6WZBz+klKtk5Lv81l3/fchcjuoXmkyAKef3y7Rz701LSnBAgQIECAAAECcwTet9Xn9KQTAgQIECBAgACBCohrpVAQIECAAAECBCYKiGsTp6InAgQIECBAgEAFxLVSKAgQIECAAAECEwXEtYlT0RMBAgQIECBAoALiWikUBAgQIECAAIGJAuLaxKnoiQABAgQIECBQAXGtFAoCBAgQIECAwEQBcW3iVPREgAABAgQIEKiAuFYKBQECBAgQIEBgooC4NnEqeiJAgAABAgQIVOAJy54gpkTntEcAAAAASUVORK5CYII=;" parent="1" vertex="1">
          <mxGeometry x="40" y="160" width="826" height="505" as="geometry" />
        </mxCell>
        <mxCell id="ELQDbCGjd16Vh4-IR_vf-3" value="$$\sqrt{\bar{\alpha}}$$" style="text;html=1;align=center;verticalAlign=middle;whiteSpace=wrap;rounded=0;fontSize=70;fontColor=#000000;" parent="1" vertex="1">
          <mxGeometry x="80" y="520" width="262" height="105" as="geometry" />
        </mxCell>
        <mxCell id="kMqr7UI8cW892v_OXYxu-2" value="" style="shape=image;verticalLabelPosition=bottom;labelBackgroundColor=default;verticalAlign=top;aspect=fixed;imageAspect=0;image=data:image/png,iVBORw0KGgoAAAANSUhEUgAAAzoAAAH5CAIAAADGMNzQAAAAAXNSR0IArs4c6QAAAERlWElmTU0AKgAAAAgAAYdpAAQAAAABAAAAGgAAAAAAA6ABAAMAAAABAAEAAKACAAQAAAABAAADOqADAAQAAAABAAAB+QAAAAAsxDc4AABAAElEQVR4Ae3dB3gU1drAcdIbKSQhIQkJhCaBUBNAQPSCiiJXARuI0i3YuIBeFfGzcFG899ouIihKEURExYKKCooKCAIJvRNaQkghvbfd/d6wusYEUrfMzP7z+ODs7Mw57/m9C7zM7JzjYDAYmvGDAAIIIIAAAgggoFQBR6UGRlwIIIAAAggggAAClQKUa3wOEEAAAQQQQAABRQtQrik6PQSHAAIIIIAAAghQrvEZQAABBBBAAAEEFC1Auabo9BAcAggggAACCCBAucZnAAEEEEAAAQQQULQA5Zqi00NwCCCAAAIIIICAsw0J9Hr9+fPnvb29HRwcbBgGXSOAAAIIIIAAArYVkHlw8/PzQ0NDHR0vdSlN3rbVT1JSkm1p6B0BBBBAAAEEEFCOgJRGl6zKbHl1Ta6rCZBE5uPjoxwpIkEAAQQQQAABBKwskJeXFx4ebiyNanZty3LNeA9UajXKtZqJYQ8CCCCAAAII2JvA5b4edqn7o/Zmw3gRQAABBBBAAAEFC1CuKTg5hIYAAggggAACCLBmKJ8BBBBAAAEEEEBA4QJcXVN4gggPAQQQQAABBOxdgHLN3j8BjB8BBBBAAAEEFC5AuabwBBEeAggggAACCNi7AOWavX8CGD8CCCCAAAIIKFyAck3hCSI8BBBAAAEEELB3Aco1e/8EMH4EEEAAAQQQULgA5ZrCE0R4CCCAAAIIIGDvApRr9v4JYPwIIIAAAgggoHAByjWFJ4jwEEAAAQQQQMDeBSjX7P0TwPgRQAABBBBAQOEClGsKTxDhIYAAAggggIC9C9SrXNu8efPNN98cGhrq4ODwxRdfXM7sl19+iYmJcXd3b9eu3dtvv325w9iPAAIIIIAAAgggUH+BepVrhYWFPXr0WLBgQS3tnj59+qabbho0aNCePXuefvrpadOmrV27tpbjeQsBBBBAAAEEEECgPgLO9Tlo2MWf2o+Uy2kRERFvvPGGHBYVFRUXF/fKK6/cdttttZ/FuwgggAACCCCAAAK1C9SrXKu9CeO727dvHzp0qOnIG264YcmSJeXl5S4uLqadslF68ce4Jy8vr+pbbCOAAAIIIIAAAk0RMBgMJeX6/JLyvJKKgtKKotKK4nKd7CmRXyv+2KjcU7ldWqGr0Bl0BkOF3qDXV/lV9lzcLzslmAHtA2YOvaIpUTX9XLOVa6mpqcHBwaaAZLuioiIjIyMkJMS0UzbmzZv3wgsvVN3DNgIIIIAAAgggUIuATm/ILirLLizLMv73+3a57Py9MiupyC8tz5cSraRCaq9ammrEW8G+7o04y7ynmK1ck7DkQQRTcFLeVttjfGvWrFkzZ840bsvVtfDwcNMpbCCAAAIIIICAHQpIzSBXwtLyStPzStLzS9PySmQ7Lb9EXmYWlGUVleUWl18sK+pr4+jQrLmbs7e7i6erk4erk7uzk5uLo7uLU+V/zsYNRw8X2enk7Ojg5Ohg/NXJ0dHJsZn8Ki8dL+6UdqS6aaWlcq1Vq1Zygc0EmZ6e7uzsHBAQYNpj3HC7+FNtJy8RQAABBBBAQPMCcvPxfE7Jueyi5Ozi5Jzic9nF53OKjfVZUZmuzuH7ebr4e7q28HL1l/8ubrTwdPHxcPF2r6zMpD7zMW64O3u5OlW9hFRny8o/wGxX1/r37//VV1+ZBrxhw4bY2NhqX1wzvcsGAggggAACCGhVQL7ylZJXciaj8HRGodRklfVZTrGUaFKZ1TJkqbqCfdyDvN0qf/VxC/au/LVlczcpzqRE8/NwcZZrX/b6U69yraCgICEhwUgkE3bs3bvX399fngOVO5vJyckrVqyQt6ZOnSozfciNzvvuu08eO5DnDFavXm2vqowbAQQQQAABuxCQ+5ipeSVSlp3JKDqTWVmfnc2U/+Qr/vpLjl9uQbZu4RHWwqPyVz/PUD/3Vj7uxvrM07VeNcklm9X8znrRyKwcgwcPNloYv3k2YcKE5cuXp6SkJCYmGvdHRkauX79+xowZb731lkyoO3/+fGbx0PynhwEigAACCNiVgHzlPzGr6ERa/on0AuOvpy4UyqOXNRHk618R/p5tA73k1zC/i8VZZYnmKbcvNXabsubYLbHHwfhMgCWarrNNedTA19c3NzfXx8enzoM5AAEEEEAAAQSsKSDFmVwqO55WkJBeWZ/JxskLBWU1LpvJV/XDW3hIZdY2wCtSfq3cqCzR7PneZSPSVHtRVK+ra43olVMQQAABBBBAQF0CxWW6o6l5h1PyDp+v/PVoSn7NK2duzo4dgpp3CvY2/tq+pVe4v6eLHX+rzDopplyzjjO9IIAAAgggoDiBjILSQ1KZXSzODp/PlW+eVZuzzN3FsWOQd8eg5h2Djb82lxuacjlNcSPRekCUa1rPMONDAAEEEEDgDwGZ3uzAudx953L2n8vZl5QrD2z+8c7v/w9s7tYl1KdLiI/xV7m5SXFWjcgmLynXbMJOpwgggAACCFhDQKY6k3uaUp9JcSa/ypfPqs43K9PbS0HWNdTXWJ9FhXgHedt+Bn9ruKitD8o1tWWMeBFAAAEEEKhV4EJ+afzZ7PizWXFnsw8l55Xp/jKnhjwE0L21b49wP/m1W5ivTDBba2O8qQgByjVFpIEgEEAAAQQQaLSATEubcKEg7kx23NksKdRk2rOqTcncGd1b+0l91qO1r2y09Har+i7bqhCgXFNFmggSAQQQQACBvwjIhBoHknN+O5W160zW7rPZeSUVprflFmenIO+Yti1i27SIadNCZj5jqjMTjko3KNdUmjjCRgABBBCwO4FynX7/udzfTmXKf3ItreosG7JaQM9wv9i2lfVZr4gWvh7c4tTUx4NyTVPpZDAIIIAAAhoTkBLtQHJlibb9ZKbc6Ky6FLrc5byyXUCftv5SpUWF+DD5mcZSX3U4lGtVNdhGAAEEEEDA9gKy4FBCesGWExlbTlzYeTqrsOzPVZ6kROsXGXBlO/8r2wfIHU9HpkCzfbqsEQHlmjWU6QMBBBBAAIE6BTILSrcmZGytrNIyZN100/F+lSWav1xI60+JZkKxsw3KNTtLOMNFAAEEEFCSgMyLFn8me/PFC2mywIApNFnrqW+k/6COgQM7BEa18uEqmknGPjco1+wz74waAQQQQMCWAudzijcdTf/5WPqvCZlVnxiQr6BJiSb/yTfS3F2cbBkifStJgHJNSdkgFgQQQAAB7QpU6PR7knKkSvvpaPrR1HzTQGUiNKnPru7YUi6kMSmaiYWNqgKUa1U12EYAAQQQQMDMAtmFZb8cvyBVmvyaW1xubF2eEJDpNoZ0Dhp8RZAs/cS8aGZG11xzlGuaSykDQgABBBBQgMDZzMINh9I2HE6V2Tf0ht8DkunQrunUUqo0+bWFl6sCwiQEdQhQrqkjT0SJAAIIIKB8AZmAQx4X2HAo9ftDacfS/rzd2bmVt5Ro8p/MZOvs5Kj8gRCh0gQo15SWEeJBAAEEEFCZgHwpbeeZLLmWtvFwWnJOsTF6J0cHmR1taJdW13UJllXVVTYkwlWYAOWawhJCOAgggAACKhEoKddtPn5BLqT9eDQtp+j3L6XJYlByo3No12C5lubnye1OleRS8WFSrik+RQSIAAIIIKAkAZkpbfPxjG/2n//hSHpB6e8Lq8tiA9dGBd/QtdVVHQI9XJmAQ0kJ00QslGuaSCODQAABBBCwsIBUabLewDf7U+SOZ/4fVVqIr7uUaPJfn7Yt+FKahTNg181Trtl1+hk8AggggEDtAmUV+l8TMr7enyLPeOaX/H4tLdjH7aZuIX/vHtIrvAXrDdQOyLtmEaBcMwsjjSCAAAIIaEpApzdsP5m5bl+yfDXNNFlakHdllTa8e0hMBFWaptKt/MFQrik/R0SIAAIIIGAlAeNMHF/sSV6373x6fqmxV1lp4KboVsO7h8a2oUqzUiLoppoA5Vo1EF4igAACCNijQFJWkZRon+9JTkgvMI5fprSVC2m39AiV5TtlVg57RGHMihGgXFNMKggEAQQQQMDqAjlFZd8cSJHLabvOZBs7d3V2vD4qeGSvMJmPQ7atHhEdInAJAcq1S6CwCwEEEEBA2wLyAMGPR9I+25P887H0cl3lElEODs0GtA8Y0TPsxuhWPu4u2h4+o1OdAOWa6lJGwAgggAACjRc4dD73k7hzX+5Nzv5jYtsuIT6jeoXd3CO0la9749vlTAQsKUC5Zkld2kYAAQQQUIZAVmGZlGhSqB1OyTNGJJNxjOrV+tbeYZ2CvZURI1EgcFkByrXL0vAGAggggIDaBWQ1z80nLkiV9sORNONNT1cnx+u7BN8e2/rqji15gEDt+bWf+CnX7CfXjBQBBBCwI4GTFwo+jkv6fHeyaT6O6DCfO2LC5UnPFl4s5WlHnwRtDJVyTRt5ZBQIIIAAApUCsuz6dwdTP9yZuPN0llHE38t1ZM+wO2JbR4X4YISASgUo11SaOMJGAAEEEPiLgMyXtnpn4trd53IuPkMgE6UNviLojtjwIZ2DmI/jL1K8UKEA5ZoKk0bICCCAAAJ/CNS8nBbq6z66T8SdfVqH+Hr8cRT/R0DdApRr6s4f0SOAAAJ2K1DzctqQzsFj+4Vf0ymIZwjs9lOh1YFTrmk1s4wLAQQQ0KZAuU7//aHUFdvPmr6dxuU0bWaaUVURoFyrgsEmAggggICCBdLzSuQZgg93JBof9pRvp3E5TcHpIjRzClCumVOTthBAAAEEzC5gMBjizmbL5bRvD6RU6CsXjAps7ja2X8RdfcP5dprZtWlQmQKUa8rMC1EhgAACCDQrLtPJUgTvbz975I+lCGLbtBjXv82w6BAe9uTzYVcClGt2lW4GiwACCKhD4Gxm4crtZ2We27ySConYzdlR5k6TQi06zFcdAyBKBMwqQLlmVk4aQwABBBBogoDc99x+MnPJ1tObjqUbKm97Ngv39xh/ZVuZ5NbPk6UImiDLqSoXoFxTeQIJHwEEENCEQGmFbt3e80t/PWO673lNp5YTBrRhVg5NpJdBNFWAcq2pgpyPAAIIINAUgcyC0lU7EuVJgoyCUmnHw8XptpiwSQMj27ds3pRmORcBLQlQrmkpm4wFAQQQUJPA8bT8pVtPf74nubRCL3G38nEfP6DN2L4R3PdUUxaJ1SoClGtWYaYTBBBAAIE/BOQLar8cvyBfUNtyIsO4r3tr3ylXRd7ULcTFyfGPo/g/Agj8KUC59qcFWwgggAACFhUoq9Cv23d+8eaTx9MKpCOZ53Zol1ZTBkXK9BwODg4W7ZrGEVC1AOWaqtNH8AgggIA6BApKKz7amShX1FJySyTi5m7Od8aGTxrYNtzfUx0DIEoEbCpAuWZTfjpHAAEEtC5wIb90+bbTMomacQa1IG+3yVdFypoEPu4uWh8640PAbAKUa2ajpCEEEEAAgaoCpzMK391y6tP4c3IPVPa3a+n1wNXtRvYKc3N2qnoY2wggUKcA5VqdRByAAAIIINAwgX1JOW//cvK7Q6nGqW57RfhNvab99VHBjvJtNX4QQKDhApRrDTfjDAQQQACBSwnII5+bT2Qs+jnht1NZxvev7Rz0wDXt+7TlSYJLebEPgXoLUK7Vm4oDEUAAAQQuI6DXG344krbgp4T953LlEGdHhxE9w+6/ut0Vrbwvcwa7EUCgAQKUaw3A4lAEEEAAgWoCOr1h/YGUt35KOJqaL2/JmgR39Y24d1BkqJ9HtSN5iQACjRagXGs0HScigAACdi1QrtN/uff8wp8STmUUCoTMzSFLfE4eGBnQ3M2uXRg8AhYQoFyzACpNIoAAApoWkOXY5XnPRT+fPJddLAP183SRKm1C/7a+nszNoenEMzjbCVCu2c6enhFAAAG1CRSX6VbvTHxn88m0vMrl2AObu943qN3dV7aRS2tqGwrxIqAmAX6DqSlbxIoAAgjYSqCwtGLlb2ff3Xwqs7BMYpDl2Kde025M3wh3FyZRs1VO6NeOBCjX7CjZDBUBBBBohEBRWcUHv519+5dTWRcLtXB/j4f+1uHW3sx22whLTkGgkQKUa42E4zQEEEBA8wJy63PVDinUTmYUVF5RaxPg+eiQjiN7hjo7OWp+7AwQAUUJUK4pKh0EgwACCChCoKRc9+GOxEW/nJQVPyUguaI2bUjHUb3CKNQUkR6CsD8ByjX7yzkjRgABBC4vIIXaRzsTF/58Mv1ioda6hcejQ+TWZ2sXrqhdHo13ELC0AOWapYVpHwEEEFCHgEzP8fGupLd+OpmaVyIRh/l5PDKkw229W7s6c+tTHRkkSg0LUK5pOLkMDQEEEKiXgEx4+0ncuQWbTpzPrSzUQnzdHx7c4c7YcAq1evFxEAKWF6Bcs7wxPSCAAAJKFZC1Pr/af/61jcfPZhZJjME+blKoje4T7ubM9BxKzRlx2aUA5Zpdpp1BI4CA3QsYDIYfj6S/suGYca1PmfBWpucY24951Oz+kwGAIgUo1xSZFoJCAAEELCmw/WTmf78/ujsxRzrxdnd+4Op2kwZGerEygSXNaRuBpghQrjVFj3MRQAABlQnsP5fz3++PbTmRIXG7uzhOHBApixP4ebqqbBiEi4CdCVCu2VnCGS4CCNirQEJ6/qsbjn97MFUAnB0d7uobITN0BPm426sH40ZATQKUa2rKFrEigAACjRA4l130xg8nPtt9Tm9o5uDQbFTPsOnXdYoI8GxEU5yCAAI2EaBcswk7nSKAAALWEMgtKn/r54Tlv54p0+mlv6Fdgh+/4YpOwd7W6Js+EEDAfAKUa+azpCUEEEBAMQKyOMHK7WcX/JSQW1wuQfVvF/DEjVf0imihmAAJBAEEGiBAudYALA5FAAEElC8gU6l9uS/5le+PJ+cUS7SdW3k/NazzNZ1aOsh9UH4QQECdApRr6swbUSOAAAKXEth6ImPet0cOnc+TN1v5uD82tJMs9+nkSKF2KSz2IaAeAco19eSKSBFAAIHLCxw+n/fyd0c3H78gh3i7OT84uP2kAZEerixOcHky3kFAPQL1Xbh34cKFkZGR7u7uMTExW7ZsueQAV61a1aNHD09Pz5CQkEmTJmVmZl7yMHYigAACCJhR4HxO8WMf7xv+5hap1VycHCYNbPvLE4NliQJqNTMi0xQCthWoV7m2Zs2a6dOnz549e8+ePYMGDRo2bFhiYmK1uLdu3Tp+/PgpU6YcOnTok08+2bVr17333lvtGF4igAACCJhRIK+k/OVvj/7tlZ/X7j5nMDT7e/eQH2Ze89zNXf29mPbWjMw0hYDtBRxk2bg6o+jXr1/v3r0XLVpkPDIqKmrkyJHz5s2reuIrr7wiB5w8edK488033/zPf/6TlJRU9Zhq23l5eb6+vrm5uT4+PtXe4iUCCCCAQC0CFTr96l1Jr288nlVYJof1i/R/+qaoHuF+tZzCWwggoGSB2ouiuq+ulZWVxcfHDx061DRI2d62bZvppXFjwIAB586dW79+vdR/aWlpn3766fDhw6sdIy9LS0slINNPzQPYgwACCCBQu4Dc9Lxp/pb/++Kg1GrtW3otmRD70f1XUqvVjsa7CKhaoO5HDTIyMnQ6XXBwsGmcsp2aWrmMSdUfKdfku2ujR48uKSmpqKi45ZZb5AJb1QOM23JN7oUXXqi5nz0IIIAAAnUKJKQXvPjN4Z+OVT5P4OfpMuO6TmP7Rbg41f0P7zpb5gAEEFCyQH1/k1edsEeun1V9aRze4cOHp02b9uyzz8qluO++++706dNTp06tOfJZs2bJ3U/jT+23Smueyx4EEEDAbgWyC8ueX3fohjc2S60mK35OuSryl8cHTxjQllrNbj8SDNyuBOq+uhYYGOjk5FT1clp6enrVi21GL7lsNnDgwH/+85/ysnv37l5eXvJQwty5c+Up0aqgbhd/qu5hGwEEEECgFoGyCv3K387O//GEcX2C67sEy9fUIgO9ajmFtxBAQGMCdZdrrq6uMnnHxo0bR40aZRy8bI8YMaIaRFFRkbPzn61JhScH1Oc5hmrt8BIBBBBAwCggf4T+eCT9pfVHTmUUyh5Zn+DZv3cZ0CEQHwQQsDeBPwusWkY+c+bMcePGxcbG9u/ff/HixTKLh/FGp9zZTE5OXrFihZx7880333ffffJw6A033JCSkiITf/Tt2zc0NLSWZnkLAQQQQOByAkdS8uZ+c/jXhMoJLAObuz4+9Io7YsNZn+ByXOxHQNsC9SrX5AECmfN2zpw5UodFR0fL459t2rQRF3lpmoBt4sSJ+fn5CxYseOyxx/z8/IYMGfLvf/9b23aMDgEEELCEQE5R2asbjq/acVZvaObq7ChfU3vob+293V0s0RdtIoCAKgTqNe+ahUYi03kw75qFbGkWAQTUKKDTG1bvTHxlw7GconKJf3i3EFmdPdzfU41jIWYEEGiQQO1FUb2urjWoPw5GAAEEEGiEwK4zWc99eehwSuXq7PI1NVmcoH/7gEa0wykIIKA9Aco17eWUESGAgMoEUnNLXv72yBd7z0vcPu7Ojw294u5+Ec7MpqayNBIuAhYUoFyzIC5NI4AAArULlFbolm498+amE0VlOgeHZmP6RDw+tFNAc7faz+JdBBCwNwHKNXvLOONFAAGlCPx0NH3O14dPX5yko3eE3wu3RHdr7auU4IgDAQSUJEC5pqRsEAsCCNiHwJmMQinUNh1Nl+G29HabNazzyJ5hjo4O9jF6RokAAg0WoFxrMBknIIAAAo0WKCqreOunhHc3ny7T6WUtqclXRT46pAOTdDTakxMRsBMByjU7STTDRAAB2wtsOJT6wleHk3OKJZSrO7WUJQo6BDW3fVhEgAACihegXFN8iggQAQTUL5CUVSQLtP948e5nmJ/Hszd3Gdol2EEeLuAHAQQQqIcA5Vo9kDgEAQQQaKyAPPv57uZTb25KKK3Quzg53Deo3SNDOni68mdvY0E5DwG7FOCPDLtMO4NGAAGrCGw5cUFmvjUu0D6gfcCcEdHc/bQKPJ0goDUByjWtZZTxIICAEgRk5ltZoP3r/SkSjDz7+czwqFt6hHL3UwmpIQYE1ChAuabGrBEzAggoV6BCp1++7czrG48Xlulkao4JA9rOuL6TDwu0KzdjRIaACgQo11SQJEJEAAG1CMSdyXrmi4NHU/Ml4F4RfnNHRncNZeZbtWSPOBFQrgDlmnJzQ2QIIKAigZyisnnrj66JS5KY/TxdZObbO2LCmflWRRkkVASULEC5puTsEBsCCKhAwGAwrNt3/l9fH84oKJNwx/QJf+LGzv5erioInRARQEAlApRrKkkUYSKAgCIFzmYWyt3PLScyJLqOQc3n3dottq2/IiMlKAQQULEA5ZqKk0foCCBgQ4Fynf7dLaf+98MJmVDN1dlx2pAO91/dXjZsGBJdI4CAVgUo17SaWcaFAAIWFNidmP30ZweMjxTIhGovjuoWGehlwf5oGgEE7FuAcs2+88/oEUCggQJ5JeX//e7YBzvOGgzN5AtqMqHaqF5hTKjWQEUORwCBhglQrjXMi6MRQMBuBeSRgu8Opj637lB6fqkg3B7T+umbonikwG4/DwwcAWsKUK5ZU5u+EEBArQLJOcXPfXnwhyPpMgC57/niqOgB7QPVOhjiRgABtQlQrqktY8SLAALWFdDpDbJKwasbjhWV6WSN9gevaf/Q4A7uLk7WjYLeEEDArgUo1+w6/QweAQRqFziWmv/k2v17k3LksD5tW7w0qlvHYO/aT+FdBBBAwOwClGtmJ6VBBBDQgkBZhX7hzwlv/ZRQrjN4uznPuilK5r9llQItpJYxIKBCAco1FSaNkBFAwMICcjntyU/3H0urXPrzuqhgWfqzla+7hfukeQQQQOCyApRrl6XhDQQQsEOB4jKdfE1t6a+n9YZmAV6uL4zoOrxbCPN02OEngSEjoCgByjVFpYNgEEDAlgLbTmY8tfZAYlaRBCGzqT379y4tWPrTlgmhbwQQ+F2Aco2PAgIIINAst7j85W+PrN6ZJBahvu6ySsHgzkG4IIAAAgoRoFxTSCIIAwEEbCaw8XDaM18cSMurnPx23JVtnrjxCm93F5tFQ8cIIIBADQHKtRok7EAAAbsRyCgofX7doa/3p8iIZfLbf9/WvW+kv92MnoEigIBqBCjXVJMqAkUAATMKyIpS6/adl1otu6jcydHh/qvb/ePajkx+a0ZhmkIAATMKUK6ZEZOmEEBAHQIX8ktnf35gw+E0CbdLiM9/bu8eHearjtCJEgEE7FKAcs0u086gEbBXAeNFNVmmPaeoXFaUenRIxwf/1t7FydFePRg3AgioQ4ByTR15IkoEEGi6gFxU+78vDn53KFWakotqr97ZIyrEp+nN0gICCCBgaQHKNUsL0z4CCNheQC6qyfMEz355UL6p5uxYeVHtocFcVLN9XogAAQTqKUC5Vk8oDkMAAbUKyOOfclHt24O/X1R75Y4eXUK5qKbWbBI3AvYpQLlmn3ln1AjYi8DX+88/++WhrMIyuaj28OAO8p+rM99Us5fsM04ENCNAuaaZVDIQBBD4i4BcVJO7n+sPVF5U69zKW76p1jWUxz//QsQLBBBQiwDlmloyRZwIINAAgW/2p/zflweNF9UeGtzhES6qNQCPQxFAQHEClGuKSwkBIYBAUwSyC8ue+fKglGvSiFxUk2+qMadaUzw5FwEElCBAuaaELBADAgiYR+Cno+lPrN0vE3bIQgUP/639I0M68k0188jSCgII2FSAcs2m/HSOAAJmEigsrZj7zZHVOxOlvfYtvV4f3bN7az8ztU0zCCCAgI0FKNdsnAC6RwCBpgvEncma+fG+xKwiaWrywMgnbryC1T+brkoLCCCgHAHKNeXkgkgQQKDBAqUVutc2Hl+8+ZTB0CzMz+O/d3Qf0D6wwa1wAgIIIKBsAco1ZeeH6BBA4PICh8/nzfx479HUfDnk9pjWz97cxcfd5fKH8w4CCCCgVgHKNbVmjrgRsGcBnd7wzuaTr288Xq4zBHi5vnRrtxu6trJnEMaOAALaFqBc03Z+GR0CGhQ4k1H42Cf74s9my9iu7xI879Zugc3dNDhOhoQAAgj8IUC59ocE/0cAAcULyErtq3YkvvjNkeJynbeb83O3dL2td5iDg4PiAydABBBAoEkClGtN4uNkBBCwmkBaXskTn+7/5fgF6bF/uwB5qqB1C0+r9U5HCCCAgA0FKNdsiE/XCCBQX4FvD6TM+vxATlG5m7Pjkzd2njigraMjF9Xqq8dxCCCgdgHKNbVnkPgR0LhAQWnFC+sOfRJ/TsbZLcz39dE9OgR5a3zMDA8BBBD4qwDl2l89eIUAAkoS2J2YPWPN3rOZRfL9tAevaT/9uk4sKqWk/BALAghYSYByzUrQdIMAAg0SqNDpF/yU8OamBJmzQ+a/fe3OHv3aBTSoBQ5GAAEENCNAuaaZVDIQBLQjcDazcPqavXsSc2RII3qGzhkR7evB/LfayS8jQQCBhgpQrjVUjOMRQMCCAjJVx6fx555fd6iwrHKqjrmjokf0DLNgfzSNAAIIqEGAck0NWSJGBOxDIKeo7OnPD6w/kCrD7dvW/7XRPZiqwz4yzygRQKAOAcq1OoB4GwEErCPwa0LGYx/vS80rcXZ0mHF9p6nXtHdiqg7r0NMLAggoXoByTfEpIkAEtC5QWqF75ftj7245LQNtF+j1xpie3Vv7aX3QjA8BBBBogADlWgOwOBQBBMwucDwt/x8f7T2Skictj+0X8czwKE9X/lwyOzMNIoCAugX4Y1Hd+SN6BNQrIE8VfLAjce7Xh0sr9P5erv++rbus167e4RA5AgggYDkByjXL2dIyAghcVkCeKpAFQDccTpMjru7U8pU7ugd5u1/2aN5AAAEE7FuAcs2+88/oEbCFwI5TmTKtWkpuiYuTgywAOnlgJAuA2iIP9IkAAqoRoFxTTaoIFAENCMhaBfM3JSzYdEJvaBYZ6PXmXb2iw3w1MC6GgAACCFhUgHLNorw0jgACfwqcyy6a/tHeuLPZsuv2mNYv3NLVy40/gv70YQsBBBC4nAB/Vl5Ohv0IIGBOgW8PpDy5dn9eSUVzN+cXWavAnLS0hQAC2hegXNN+jhkhArYVKC7Tzfn68OqdiRJGj3C/N8f0igjwtG1I9I4AAgioS4ByTV35IloEVCYgE6o9unpPQnqBg0MzWahg5vWdXJwcVTYGwkUAAQRsLUC5ZusM0D8CGhWQadVW/nZ27jdHyir0Lb3dXr+z51UdAzU6VoaFAAIIWFaAcs2yvrSOgH0KZBeW/fPT/T8cqZxWbfAVMq1aj4DmbvZJwagRQACBpgtQrjXdkBYQQOAvAttPZs5Ys1cWa3d1cnxqWOdJA9s6yK1QfhBAAAEEGitAudZYOc5DAIEaAjq94c1NJ+b/WDmtWruWXvPHMK1aDSN2IIAAAg0XoFxruBlnIIDApQTS80tkWrVtJzPlTZlWbc6IrizWfikn9iGAAAINFqBcazAZJyCAQE2BrScypq/Zk1FQ5unqNHdk9K29W9c8hj0IIIAAAo0ToFxrnBtnIYDA7wKyrtQbP5x46+cEg6FZ51beC8b27hDUHB0EEEAAATMK1HcCpIULF0ZGRrq7u8fExGzZsuWSEZSWls6ePbtNmzZubm7t27dfunTpJQ9jJwIIaEYgNbdk7Hs7FvxUWavd1Tfii4cHUqtpJrkMBAEElCNQr6tra9asmT59ulRsAwcOfOedd4YNG3b48OGIiIhqw7jzzjvT0tKWLFnSoUOH9PT0ioqKagfwEgEEtCTw07H0xz7el1VY5uXqNO+27rf0CNXS6BgLAgggoBwBB5nKss5o+vXr17t370WLFhmPjIqKGjly5Lx586qe+N13340ZM+bUqVP+/v5V91fblitw8mPcmZeXFx4enpub6+PjU+0wXiKAgJIFynX6VzYce+eXUxJk11AfuQEaGeil5ICJDQEEEFC4gBRFvr6+lyuK6r4ZWlZWFh8fP3ToUNM4ZXvbtm2ml8aNdevWxcbG/uc//wkLC+vUqdPjjz9eXFxc7Rh5KUWeRGP8kVqt5gHsQQABhQsk5xSPWfybsVYb37/N2gcHUKspPGWEhwACaheo+2ZoRkaGTqcLDg42DVW2U1NTTS+NG3JdbevWrfLlts8//1xOeeihh7Kysmp+fW3WrFkzZ840nmK8ulatHV4igICSBX44nPbYJ/tyi8u93Zz/fXv3m7qFKDlaYkMAAQS0IVB3uWYcZ9VJyeX+adWXxgP0er3sXLVqlVw5kz2vvfba7bff/tZbb3l4eFSVkqcQ5KfqHrYRQEAVArL053++O/re1tMSbffWvgvu6h0R4KmKyAkSAQQQULtA3eVaYGCgk5NT1ctp8hhB1YttRoKQkBC5DWqs1WSPfL9Nqrpz58517NhR7UbEjwACSVlFj6zesy8pRygmD4yUpaVcnev+KgVuCCCAAAJmEaj7D1xXV1eZvGPjxo2m/mR7wIABppfGDXlo9Pz58wUFBcaXx48fd3R0bN2aqTKrOfESAfUJyA3Q4fO3SK3m4+68eFzMszd3oVZTXxaJGAEE1CxQd7kmo5Nvm7333nvyRbQjR47MmDEjMTFx6tSpsl++iDZ+/Hjj8MeOHRsQEDBp0iSZ42Pz5s3//Oc/J0+eXO1OqJqhiB0BexSQKXBf/vbovSvi8koqeob7rf/HoKFdW9kjBGNGAAEEbCpQ981QCW/06NGZmZlz5sxJSUmJjo5ev369zIUr++WllG7G+Js3by5X3R599FF5PlTqNpmDbe7cuTYdGp0jgECTBNLzSuQG6M7TWdLKxAFtn74piotqTQLlZAQQQKCxAvWad62xjddxXu1TjNRxMm8jgIAlBbadzJi2em9GQWlzeQL0tu7Du/MEqCW5aRsBBOxeoPaiqF5X1+zeEAAE7EhArzcs+uXkqxuO6S+uAbrw7t7tWrIGqB19ABgqAggoUIByTYFJISQEbCaQXVg28+O9Px27IBHcHtP6XyOiPVydbBYNHSOAAAIIXBSgXOODgAACvwvsTcp5eNVuWbTAzdlRCrU7+7DuCJ8NBBBAQBEClGuKSANBIGBbAZklccX2s3O/OVyuM7QJ8JQboF1DK+e75gcBBBBAQAkClGtKyAIxIGBLgYLSiqfW7v96f4oEcWPXVv+5o7uPu4stA6JvBBBAAIG/ClCu/dWDVwjYmcCx1PwHV8WfulDo7Ogw66aoyQPb1lxizs5IGC4CCCCgOAHKNcWlhIAQsJrA2vhzs784UFKuD/F1XzC2V0wbf6t1TUcIIIAAAvUXoFyrvxVHIqAdgZJy3QtfHVq9M0mGNKhj4BujewY0d9PO8BgJAgggoC0ByjVt5ZPRIFAPgXPZRQ9+sPtAcq6DQ7Pp13Z6ZEgHJ0eHepzHIQgggAACthGgXLONO70iYCuBzccvTPtoT05ReQtPl/+N6XV1p5a2ioR+EUAAAQTqKUC5Vk8oDkNA9QKyXMHCnxNe3XjcYGjWvbWvzNbRuoWn6kfFABBAAAE7EKBcs4MkM0QEmjXLLS5/7ON9PxxJE4y7+oY/d3NXdxeWK+CTgQACCKhDgHJNHXkiSgSaInA0NW/qyvgzmUWulcsVdB3dJ6IprXEuAggggICVBSjXrAxOdwhYW+DLvclPrT1QXK4L8/NYdE/v7q39rB0B/SGAAAIINE2Acq1pfpyNgIIFyir0L60/snzbGYlRZuuQBwv8vVwVHC+hIYAAAghcWoBy7dIu7EVA7QJpeSWyXnvc2WwZyCODO8y4vhOzdag9p8SPAAJ2K0C5ZrepZ+BaFthxKvPhD/dkFJR6uzm/Nrrn9V2CtTxaxoYAAghoXYByTesZZnx2JmAwGJZsPT3v26M6veGKYO+3x8VEBnrZmQHDRQABBLQmQLmmtYwyHnsWKCyteHLt/q/3pwjCiJ6h827t5unK73F7/kQwdgQQ0IgAf5RrJJEMA4FTFwqmfhB/PK3A2dHhmeFREwa0dZBFpvhBAAEEEFC/AOWa+nPICBBo1mzDodSZH+8rKK0I8naT5Qpi2/qjggACCCCgGQHKNc2kkoHYqYAsLfXGjyfm/3hCxt+3rf+Cu3sFebvbqQXDRgABBDQqQLmm0cQyLPsQyCspn7lm7w9H0mW4Ewe0nT08ysXJ0T6GzigRQAABOxKgXLOjZDNUjQkkpBfcvzLu1IVCWVrqpVHdbo9prbEBMhwEEEAAAaMA5RqfBARUKWD6slqIr/s742JYWkqVWSRoBBBAoH4ClGv1c+IoBBQjUPXLav0i/d+6u3dgczfFREcgCCCAAALmF6BcM78pLSJgOQG+rGY5W1pGAAEEFCtAuabY1BAYAtUFqn5Zbd6obrfxZbXqQrxGAAEEtClAuabNvDIq7Ql8fyj1sYszq4VWflkttltrX+2NkREhgAACCFxSgHLtkizsREBBApVfVvvh+PxNCRITX1ZTUGIIBQEEELCWAOWataTpB4FGCciX1WZ8tPfHo8ys1ig+TkIAAQQ0IUC5pok0MgiNCiSk59+/Iv5URuXManxZTaNJZlgIIIBA3QKUa3UbcQQCNhHgy2o2YadTBBBAQIEClGsKTAoh2buAfFntfz+ekP8Egi+r2fungfEjgAACzZpRrvEpQEBZAoWlFTM/3vv9oTQJi2VAlZUbokEAAQRsJEC5ZiN4ukXgUgJJWUX3rYg7mprv6uT44qjoO2LDL3UU+xBAAAEE7EuAcs2+8s1olSyw7WTGw6t2ZxeVt/R2e/uemJg2LZQcLbEhgAACCFhNgHLNatR0hMBlBQwGw8rfzr7w1WGd3tC9ta8s2R7i63HZo3kDAQQQQMDOBCjX7CzhDFd5AmUV+ufWHVy9M0lCG9kz9OXburu7OCkvTCJCAAEEELCZAOWazejpGAERyCgoffCD+F1nsh0cmj15Y+cHrm7nIFv8IIAAAgggUEWAcq0KBpsIWFfgYHLuAyvjk3OKvd2c59/Va3DnIOv2T28IIIAAAuoQoFxTR56IUnsCX+8///gn+0rK9e0CvRaPj+0Q1Fx7Y2RECCCAAAJmEaBcMwsjjSDQAAGZBfe1jccX/FS5ZPvVnVq+eVcvXw+XBpzPoQgggAACdiZAuWZnCWe4thYoKK2YsWbvxsOVs+DeNyjyqWFRTo58Wc3WWaF/BBBAQNkClGvKzg/RaUvgbGahzIJ7PK2AJdu1lVhGgwACCFhWgHLNsr60joBJ4NeEjIdW7c4tLg/ydpMvq/UM9zO9xQYCCCCAAAK1CFCu1YLDWwiYR0BmwV2+7czcb47ILLg9wv0Wj4sJ9nE3T9O0ggACCCBgBwKUa3aQZIZoUwGZBffZLw9+tKtyFtxbe4W9dGs3ZsG1aULoHAEEEFCfAOWa+nJGxCoSyCosk1lwd5zOkscJZg2LundQJLPgqih9hIoAAggoRIByTSGJIAwNCpxIy5/yflxiVlFzN2eZrYNZcDWYY4aEAAIIWEWAcs0qzHRifwI/HUuf9uGe/NKKcH+PJRP6dAr2tj8DRowAAgggYB4ByjXzONIKAiYBebBgydbTL60/ojc069vW/+1xMf5erqZ32UAAAQQQQKChApRrDRXjeARqE6j6YMGdsa3njuwmU6zVdgLvIYAAAgggUJcA5VpdQryPQL0Fqj5Y8PRNUVOu4sGCettxIAIIIIDA5QUo1y5vwzsINESABwsaosWxCCCAAAINEKBcawAWhyJwOQEeLLicDPsRQAABBJouQLnWdENasGsBebBg6a9nXvzmMA8W2PXngMEjgAAClhSgXLOkLm1rXUAeLHhu3cHVOytXLODBAq1nm/EhgAACNhOgXLMZPR2rXSC7sGzqxRULHByazebBArWnk/gRQAABBQtQrik4OYSmYIGE9MoVC85mVq5YMP+unkM6Bys4WEJDAAEEEFC3AOWauvNH9DYR+PlY+qOsWGATejpFAAEE7FKAcs0u086gGysgDxYs+/XM3D8eLFh0T++A5m6NbYzzEEAAAQQQqJcA5Vq9mDgIAREo1+mfX3do1Y5E2b4jpvWLo1ixgM8FAggggIA1BCjXrKFMHxoQyCspf3jV7i0nMuTBglnDOt83qJ2DbPGDAAIIIICA5QUo1yxvTA/qF0jKKpq8fNeJ9AIPF6f/jek5tGsr9Y+JESCAAAIIqEaAck01qSJQWwnEn82+f0VcZmFZsI/bkgl9osN8bRUJ/SKAAAII2KcA5Zp95p1R11dg3b7zj3+yT6bD7RrqI7VaK1/3+p7JcQgggAACCJhJgHLNTJA0ozkBeQj0zU0Jr208LiO7LipY7oF6ufH7RXNpZkAIIICAGgT460cNWSJGqwuUVuieWnvg8z3J0vO9V0XOuinKyZEHC6yeBjpEAAEEELgoQLnGBwGB6gJZhWUPrIzbdSZbSrR/jYge2y+i+hG8RgABBBBAwIoClGtWxKYrNQgkpBfIQ6CJWUXe7s4L7+49qGNLNURNjAgggAACWhagXNNydhlbQwV+Tch48IP4vJKKcH+PpRP6dAz2bmgLHI8AAggggIDZBSjXzE5Kg2oV+Ghn4jNfHKzQG3pH+C0eHxvI6lJqzSRxI4AAAloTcKzngBYuXBgZGenu7h4TE7Nly5Zazvr111+dnZ179uxZyzG8hYCiBPR6w7z1R5767IDUarf0CP3wviup1RSVIIJBAAEE7FygXuXamjVrpk+fPnv27D179gwaNGjYsGGJiZXLJtb8yc3NHT9+/LXXXlvzLfYgoEyBorKKB1fFv7P5lIQ3/bqOMmGHu4uTMkMlKgQQQAAB+xRwkMml6hx5v379evfuvWjRIuORUVFRI0eOnDdvXs0Tx4wZ07FjRycnpy+++GLv3r01D6i6Jy8vz9fXVyo8Hx+fqvvZRsBqAml5Jfe+H3cgOdfVyfE/t3cf2SvMal3TEQIIIIAAAiaB2ouiuq+ulZWVxcfHDx061NSibG/bts300rSxbNmykydPPvfcc6Y9NTdKS0slINNPzQPYg4DVBA6dzx351q9Sq/l7uX54Xz9qNavJ0xECCCCAQIME6i7XMjIydDpdcHCwqV3ZTk1NNb00bpw4ceKpp55atWqVfHGt2ltVX8o1ObmiZvwJDw+v+hbbCFhTYNPRtDve3p6SW9K+pdcXDw2Mbetvzd7pCwEEEEAAgfoL1F2uGdtycPhzSne5f1r1pRwg9dzYsWNfeOGFTp061d73rFmz5O6n8ScpKan2g3kXAQsJrNx+Ru6BFpXpBnYI+OyhgREBnhbqiGYRQAABBBBoukBtV8KMrQcGBsp30apeTktPT696sU0Oy8/Pj4uLkwcRHnnkEXmplwftDAa5zLZhw4YhQ4ZUjdLt4k/VPWwjYE0B+Wy+tP7Ie1tPS6ejY8Pnjop2carvP1qsGSd9IYAAAgggYBKou1xzdXWVyTs2btw4atQo42myPWLECFMTsiHPChw4cMC0R2b92LRp06effipzf5h2soGAzQWKy3Qz1uz97lDlrfx/3nDFQ39rX+06sc0jJAAEEEAAAQRqCtRdrsk5M2fOHDduXGxsbP/+/RcvXiyzeEydOlX2y53N5OTkFStWODo6RkdHm1oPCgqSGdqq7jG9xQYCthK4kF9674q4fUk58hDof+/oPqInD4HaKhX0iwACCCDQMIF6lWujR4/OzMycM2dOSkqKFGHr169v06aN9CMvLzcBW8Oi4GgELCyQkJ4/cdmuc9nFfp4ui8fF9o3kwQILi9M8AggggID5BOo175r5uvtLSzKdhzwiKo8dMO/aX1x4YW6B7SczH1gZJyuBtgnwXDaxT7uWzc3dA+0hgAACCCDQJIHai6J6XV1rUv+cjIBNBT7fc+6JT/eX6ypXAn13fGwAK4HaNB10jgACCCDQCAHKtUagcYo6BOTx5Pk/Jrz+w3EJd3i3kFfv7MHqUurIHFEigAACCPxVgHLtrx680opAWYV+1mcH1u4+JwN64Jp2T97Q2dHxz7kDtTJKxoEAAgggYBcClGt2kWZ7G2RucfnUlfHbT2U6OTrMGdH17n6VT8bwgwACCCCAgEoFKNdUmjjCvqxAUlbR5OW7TqQXeLk6Lbi79+Argi57KG8ggAACCCCgBgHKNTVkiRjrLSDTqk15Py6joLSVj/vSiX26hPrU+1QORAABBBBAQKEClGsKTQxhNUJgw6HUaR/tKSnXd27lvWxSnxBfj0Y0wikIIIAAAggoTYByTWkZIZ5GCizdevpf3xw2GJpd06nlgrG9vN1dGtkQpyGAAAIIIKAwAco1hSWEcBouoNMb/vX14eXbzsipY/tFzLmlqzOrtjeckTMQQAABBBQrQLmm2NQQWL0Eisoqpq3e+8ORNDl61rDO91/djlXb6wXHQQgggAAC6hGgXFNProi0hkB6fsm978ftP5fr6uz4+p09h3cPqXEIOxBAAAEEEFC9AOWa6lNotwNISC+YuGynrNrewtPlvQmxMW1Ytd1uPwsMHAEEENC4AOWaxhOs1eHtOpMl19VkOlxZtf39SX3bBnppdaSMCwEEEEAAAco1PgPqE1h/IGX6mr2yzFTPcL8lE1i1XX0ZJGIEEEAAgQYJUK41iIuDbS/w3pZTL64/IhN2XN8leP6YXh6uTraPiQgQQAABBBCwpADlmiV1adusAnq9Ye43R5b+elpaHXdlm+dv6SpLgpq1BxpDAAEEEEBAiQKUa0rMCjHVFCgp181Ys/fbg6ny1lPDOj/AhB01jdiDAAIIIKBRAco1jSZWW8PKLiy7b0Vc3NlsVyfH/97RfUTPMG2Nj9EggAACCCBQmwDlWm06vKcEgaSsognLdp66UOjt7rx4XGz/9gFKiIoYEEAAAQQQsJoA5ZrVqOmoMQL7z+VMXr4ro6As1Nd9+eS+nYK9G9MK5yCAAAIIIKBmAco1NWdP67H/dDT9oVW7i8t1USE+yyf1CfZx1/qIGR8CCCCAAAKXEKBcuwQKu5QgsHpn4jNfHJTl2wd1DFx4d29vdxclREUMCCCAAAIIWF+Acs365vRYh4DBYHht4/E3NyXIcbf1bv3ybd1cnBzrOIe3EUAAAQQQ0K4A5Zp2c6vOkclaBU99tv+z3ckS/rRrO864rqODA5OrqTOXRI0AAgggYCYByjUzQdKMOQTySsof+mD31oQMmf/2pVHRo/tEmKNV2kAAAQQQQEDdApRr6s6flqJPzS2ZuGzn0dR8T1ent+7uPfiKIC2NjrEggAACCCDQaAHKtUbTcaI5BY6l5kutlpJbEtjcbdnEPt1a+5qzddpCAAEEEEBAzQKUa2rOnlZi33Yy44GV8fklFe1bei2f1Dfc31MrI2McCCCAAAIImEGAcs0MiDTRFIEv9yY//sm+cp2hT9sW746P9fN0bUprnIsAAggggID2BCjXtJdT1YxIJux4Z/Opl789KhEP7xby6p093F2cVBM9gSKAAAIIIGAtAco1a0nTz18F9HrDnK8PL992RnZPuSpy9k1Rjo5M2PFXI14hgAACCCBwUYByjQ+CDQRKynWPfbzvmwMp0vczw6PuHdTOBkHQJQIIIIAAAioRoFxTSaI0FGZucfn9K+J2nM5ycXJ45Y4eI3qGaWhwDAUBBBBAAAHzC1Cumd+UFmsRME2u1tzN+Z1xMQM7BNZyMG8hgAACCCCAgAhQrvExsJ5AQnr++CU7z+eWtPR2Wz6pT9dQJlezHj49IYAAAgioV4ByTb25U1nkcWeyprwfJ3dC27X0ep/J1VSWPcJFAAEEELClAOWaLfXtp+/vD6VOW72ntELfK8JvyYQ+/l5MrmY/yWekCCCAAAJNFaBca6og59cp8MFvZ5/98qDe0OzazkELxvb2cGVytTrNOAABBBBAAIE/BSjX/rRgy+wCMhHuaxuPv7kpQVoe0yd87shoZydHs/dCgwgggAACCGhbgHJN2/m15egqdPqnPz/wcdw5CeIf13acfl1HBwcmwrVlRugbAQQQQEClApRrKk2c0sMuKqt45MM9m46my1IFc0d2G9svQukREx8CCCCAAAJKFaBcU2pm1BxXZkHp5Pfj9iXluDk7ypfVru8SrObREDsCCCCAAAI2FqBcs3ECtNd9UlbR+KU7T2cU+nm6LJkQG9PGX3tjZEQIIIAAAghYU4ByzZra2u/rYHLuxGW7MgpKw/w83p/ct0NQc+2PmREigAACCCBgYQHKNQsD21PzW05cmLoyvrBM17mVt9RqwT7u9jR6xooAAggggIClBCjXLCVrb+1+sSf58U/2VegN/dsFvDM+xsfdxd4EGC8CCCCAAAIWEqBcsxCsHTUrk6u9u+XUS+uPypj/3j3k1Tt7uDkzEa4dfQAYKgIIIICApQUo1ywtrPH29XrD3G+OLP31tIxzylWRs2+KcpSpO/hBAAEEEEAAAfMJUK6Zz9L+Wiqt0D328b6v96fI0KVQu+/qdvZnwIgRQAABBBCwuADlmsWJtdpBfkn5/Svit5/KdHFy+O/tPUb2CtPqSBkXAggggAACthWgXLOtv1p7T88vmbh01+GUPC9Xp3fGxV7VMVCtIyFuBBBAAAEEFC9Auab4FCkvwLOZheOW7EzMKgps7rp8Ut/oMF/lxUhECCCAAAIIaEeAck07ubTOSC5OhLszo6Aswt9zxeS+bQO9rNMvvSCAAAIIIGC3ApRrdpv6xgx8W0LG/SvjC0oruoT4LJ/cJ8ibiXAbw8g5CCCAAAIINEiAcq1BXHZ98PoDKdM/2lum08tEuIvHx3gzEa5dfxwYPAIIIICA9QQo16xnreqeVv529tkvDxoMzYZFt3p9dE93FybCVXU+CR4BBBBAQE0ClGtqypZNYpVFC17/4cT8H09I73f3i5gzItqJiXBtkgk6RQABBBCwVwHKNXvNfP3GrdMb/u/Lgx/uSJTDp1/X8R/XdnRwYNGC+tlxFAIIIIAAAmYSoFwzE6QWmykp18mX1b47lCoV2r9GRN9zZRstjpIxIYAAjLyTKgAAHTBJREFUAgggoHQByjWlZ8hW8eWVlN/3ftyO01muTo7/G9NzWLcQW0VCvwgggAACCNi5AOWanX8ALj389LySCct2HUnJ83ZzXjw+tn/7gEsfx14EEEAAAQQQsLwA5ZrljdXWw5mMwnFLdyRlFQc2d3t/cp+uoSxaoLYUEi8CCCCAgLYEKNe0lc8mj+bAudyJy3ZmFpa1CahctKBNAIsWNNmUBhBAAAEEEGiaAOVa0/y0dfbWExkPrIwrLNN1DfWRxUBbertpa3yMBgEEEEAAAVUKUK6pMm2WCPrr/ednrNlbrjMMaB/wzjgWLbCEMW0igAACCCDQGAHKtcaoae+c97edef6rQ7JowfBuIa+N7uHmzKIF2ksyI0IAAQQQUKsA5ZpaM2euuGXRgtc2Hn9zU4I0OL5/m+du7sqiBeaypR0EEEAAAQTMIkC5ZhZGtTZSodPLogWrdybJAGZe3+nRIR1YtECtuSRuBBBAAAHtClCuaTe3dY1MFi2YtnrPhsNpsgTo3JHdxvaLqOsM3kcAAQQQQAABGwhQrtkAXQld5haX37cibqcsWuDsOH9MzxujWbRACWkhBgQQQAABBC4hQLl2CRTN70qTRQuW7jyami+LFrw7IfbKdixaoPmcM0AEEEAAARULUK6pOHmNC/20LFqwZMe57GKZVu39SX27hPo0rh3OQgABBBBAAAHrCFCuWcdZKb0cTM6V62qyaEHbAM+VU/qF+3sqJTLiQAABBBBAAIHLCFCuXQZGi7u3n8yU76sVlFZEh1UuWiBLgmpxlIwJAQQQQAABrQk41nNACxcujIyMdHd3j4mJ2bJlS82zPvvss+uvv75ly5Y+Pj79+/f//vvvax7DHhsKfH8odcKynVKrXdnOf/V9V1Kr2TAXdI0AAggggECDBOpVrq1Zs2b69OmzZ8/es2fPoEGDhg0blpiYWK2bzZs3S7m2fv36+Pj4wYMH33zzzXJwtWN4aSuBj+OSHvwgvqxCP7RLsFxX83Z3sVUk9IsAAggggAACDRVwkEnt6zynX79+vXv3XrRokfHIqKiokSNHzps3r5YTu3btOnr06GeffbbaMaUXf4w78/LywsPDc3Nz5YJctcN4aUaBd345Oe/bo9LgnbGtXxrVzdmpXjW6GQOgKQQQQAABBBCoXUCKIl9f38sVRXX/zV1WViYXzIYOHWrqRra3bdtmellzQ6/X5+fn+/v713xLijyJxvgjtVrNA9hjRgGpxed9e8RYqz1wTbt/39adWs2MvDSFAAIIIICAdQTqLtcyMjJ0Ol1wcLApINlOTU01vay58eqrrxYWFt55550135o1a5ZUjsafpKTKtY/4sZCALDD15Nr97/xyStqfNazzrGFRLDBlIWqaRQABBBBAwKIC9X0ytOrf9HLNpurLavGtXr36+eef//LLL4OCgqq9JS/dLv7U3M8e8wpUXWDq5du63xnLhUzzAtMaAggggAAC1hOou1wLDAx0cnKqejktPT296sW2qsHKQwlTpkz55JNPrrvuuqr72bamQH5J5QJTv52qXGDqzbt63dC1lTV7py8EEEAAAQQQMK9A3TdDXV1dZfKOjRs3mjqW7QEDBphemjbkutrEiRM//PDD4cOHm3ayYWWBjILSu979TWq15m7OsmgBtZqV/ekOAQQQQAABswvUfXVNupw5c+a4ceNiY2NlQrXFixfLLB5Tp06V/fJFtOTk5BUrVsi21Grjx4//3//+d+WVVxovxXl4eMgjBWaPmAZrETiXXTRuyU5ZZirAy/X9yX2jw/CvRYu3EEAAAQQQUIdAvco1mZIjMzNzzpw5KSkp0dHRMrlamzZtZHzy0jQB2zvvvFNRUfHwxR/j0CdMmLB8+XJ1MGgiyuNp+eOX7EzNKwnz81g5pW+7ls01MSwGgQACCCCAgL0L1GveNQsh1T7FiIU61WqzuxOzJy3blVtc3jGouSwG2srXXasjZVwIIIAAAghoT6D2oqheV9e0h6KxEf1y/MLUlfHF5bpeEX7LJvbx83TV2AAZDgIIIIAAAvYsQLmm+ux/te/8zI/3lusM13Rqueie3p6u5FT1OWUACCCAAAIIVBXgr/aqGurbXrn9zLPrDslCYjf3CH31jh4yc4f6xkDECCCAAAIIIFCrAOVarTwKflMmK57/Y8LrPxyXGMf3b/P8zV0dHR0UHC+hIYAAAggggEAjBSjXGgln29P0esOcrw8v33ZGwvjHtR2nX9exlnUmbBsqvSOAAAIIIIBAEwUo15oIaIPTy3X6xz/Z9+Xe89L3C7d0nTCgrQ2CoEsEEEAAAQQQsJYA5Zq1pM3UT3GZ7sFV8T8fu+Ds6PDqnT1G9AwzU8M0gwACCCCAAAIKFaBcU2hiLhlWblH55Pd3xZ/NdndxXHRPzOArgi55GDsRQAABBBBAQEsClGuqyWZaXoksWnAsLd/Xw2XpxD4xbVqoJnQCRQABBBBAAIEmCFCuNQHPiqeeySi8Z8mOc9nFQd5usmjBFa28rdg5XSGAAAIIIICALQUo12ypX8++DybnTly2M6OgrG2Ap9Rq4f6e9TyRwxBAAAEEEEBAAwKUa0pP4s7TWVOW78ovregS4vP+5L4tvd2UHjHxIYAAAggggIBZBSjXzMpp7sY2HU178IPdpRX6vpH+702I9XF3MXcPtIcAAggggAACShegXFNuhr7cm/zYx/sq9IbrooIWjO3t7uKk3FiJDAEEEEAAAQQsJkC5ZjHapjW88rezz355UBYDHdUr7D+3d3dxYjHQpoFyNgIIIIAAAqoVoFxTXOpkMdC3fkp4ZUPlYqAT+rd5jsVAFZciAkIAAQQQQMCqApRrVuWuszOp1V5af+TdLaflyGlDOsy4vhOLgdaJxgEIIIAAAghoW4ByTUH51ekNT392YE1cksT0zPCoewe1U1BwhIIAAggggAACNhKgXLMRfI1uSyt00z/a++3BVEeHZi/f1v3O2PAah7ADAQQQQAABBOxRgHJNEVkvLK2Y+kH8lhMZrk6O8+/qdWN0K0WERRAIIIAAAgggoAAByjXbJyGnqGzS8l17EnM8XZ3eHR87sEOg7WMiAgQQQAABBBBQjADlmo1TkZ5XMu6PhduXT+rTK4KF222cEbpHAAEEEEBAaQKUa7bMSFJW0d3v7UjMKmLhdlumgb4RQAABBBBQtgDlms3yczwt/573dqTnl0b4e34wpV9EAAu32ywXdIwAAggggICSBSjXbJOdPYnZ8n21nKLyK4K9V07pG+Tjbps46BUBBBBAAAEEFC9AuWaDFP2akHHfiriiMl2vCL9lE/v4ebraIAi6RAABBBBAAAGVCFCuWTtR3x1MnbZ6T5lOP6hj4Nv3xHi5kQJrp4D+EEAAAQQQUJcAtYJV8/VJXNKTa/frDc1u7Nrqf3f1dHN2smr3dIYAAggggAACKhSgXLNe0pZsPf2vrw9Lf3fEtJ53azdnJ0fr9U1PCCCAAAIIIKBaAco1a6ROFm5//YcT8388IZ3de1Xk7OFRLNxuDXf6QAABBBBAQBMClGsWT6Neb5jz9eHl285IT48P7fTw4A7UahZHpwMEEEAAAQQ0JEC5Ztlkluv0T3y6//M9yQ4Ozebc0nVc/7aW7Y/WEUAAAQQQQEBzApRrFkxpSbnukQ93/3Ak3cnR4bU7e4zoGWbBzmgaAQQQQAABBDQqQLlmqcTml5Tf+37cjtNZbs6OC+/ufW1UsKV6ol0EEEAAAQQQ0LQA5ZpF0ptVWDZh6c4DybnN3ZzfmxB7ZbsAi3RDowgggAACCCBgBwKUa+ZPckpusSwGevJCob+X64rJfaPDfM3fBy0igAACCCCAgN0IUK6ZOdVnMgrvfm9Hck5xqK/7iin9OgQ1N3MHNIcAAggggAACdiZAuWbOhB9Lzb9nyY4L+aWRgV6ycHvrFp7mbJ22EEAAAQQQQMAuBSjXzJb2fUk5E5btzCkq79zKe+WUfi293czWNA0hgAACCCCAgB0LUK6ZJ/k7TmVOeT+uoLSiZ7jf8kl9/DxdzdMurSCAAAIIIICA3QtQrpnhI/DTsfSpK+NLK/T92wW8OyFWngY1Q6M0gQACCCCAAAIIXBSgsGjqB+Gb/SnT1+wp1xmGdA6S+dXcXZya2iLnI4AAAggggAACVQQo16pgNHzz47ikp9bu1xua3dwjVNYtcHFybHgbnIEAAggggAACCNQmQLlWm07t7y3delrWbpdjxvQJf3FUN1lpqvbjeRcBBBBAAAEEEGiEAOVaI9CaGQyGBZsSXt14XE6+96rI2cOjHGQJd34QQAABBBBAAAELCFCuNRhVarV53x5dvPmUnDnjuk7Tru1ArdZgRE5AAAEEEEAAgXoLUK7Vm+rigTq94f++PPjhjkR59czwqHsHtWvY+RyNAAIIIIAAAgg0UIByrQFg5Tr945/s+3LvebnzOW9UtzF9IxpwMocigAACCCCAAAKNEqBcqy9bSbnukQ/3/HAkzdnR4fXRPeVR0PqeyXEIIIAAAggggEATBCjX6oVXWFpx/8q4XxMy3ZwdF93Te0jn4HqdxkEIIIAAAggggECTBSjX6ibMLSqfuHznnsQcL1en9yb06d8+oO5zOAIBBBBAAAEEEDCTAOVaHZAZBaXjluw8kpLn6+Hy/uS+siRoHSfwNgIIIIAAAgggYFYByrXaONPySsa++9vJC4WBzd0+uLdv51Y+tR3NewgggAACCCCAgAUEKNcui3ouu+ju93aczSwK9XVfdd+VkYFelz2UNxBAAAEEEEAAAYsJUK5dmvZsZuHYd3ck5xSH+3t8eO+V4f6elz6OvQgggAACCCCAgIUFKNcuAZyQXnD3e7+l5ZW2C/RadV+/EF+PSxzELgQQQAABBBBAwCoClGvVmY+m5t3z3o6MgrJOwc0/uLdfkLd79SN4jQACCCCAAAIIWFGAcu0v2AeTc+9ZsiOnqLxLiI/Uav5ern95mxcIIIAAAggggIDVBSjX/iTfnZg9YenO/JKKHq19V0zu5+vp8ud7bCGAAAIIIIAAAjYSoFz7HX7HqczJy3cVluli27RYNqmPtzu1mo0+knSLAAIIIIAAAn8VoFyr9Pg1IWPK+7tKyvX92wW8NyHWyw2Wv35MeIUAAggggAACthOgLqms1eS6WmmF/ppOLd8ZF+Pu4mS7dNAzAggggAACCCBQXcDey7VtJyuvq0mtNqRzkKzd7uZMrVb9I8JrBBBAAAEEELCtgKNtu7dt77+dypyyPE7ugf7tipbUarbNBb0jgAACCCCAwOUE7Ldck2cLJi3bVVyuu7pTy7fvieG62uU+IuxHAAEEEEAAAdsK2Gm5Fncma9LyylptUMfAxXxfzbafQXpHAAEEEEAAgVoF7LFcO3w+T2q1ojLdVR0C3x0fy7MFtX5CeBMBBBBAAAEEbCxgd+XamYzC8Rfnwu3TtgW1mo0/fXSPAAIIIIAAAvUQsK9yLT2vRNaYyigojQrxeW9CHw9XngOtx2eEQxBAAAEEEEDApgJ2VK6VlOvuXxl/Lru4TYDn+5P7+HqwboFNP3p0jgACCCCAAAL1E7CXcs1gMMz+/ODepByp0t6f1DfI271+PhyFAAIIIIAAAgjYWMBeyrVVOxLX7j7n6NBswdhebQO9bKxO9wgggAACCCCAQL0F7KJcS8srefnbo2Ly1LDOgzq2rDcOByKAAAIIIIAAArYXqG+5tnDhwsjISHd395iYmC1btlwy8F9++UXelWPatWv39ttvX/IYm+x84atDBaUVPcP97r2qnU0CoFMEEEAAAQQQQKDRAvUq19asWTN9+vTZs2fv2bNn0KBBw4YNS0xMrNbl6dOnb7rpJnlXjnn66aenTZu2du3aasfY5OXpjMINh9KcHB3m3drNUe6G8oMAAggggAACCKhKwEG+g19nwP369evdu/eiRYuMR0ZFRY0cOXLevHlVT3zyySfXrVt35MgR486pU6fu27dv+/btVY+ptp2Xl+fr65ubm+vj41PtLfO+PJaaH382e2y/CPM2S2sIIIAAAggggIBZBGoviuq+ulZWVhYfHz906FBTNLK9bds200vjhlRmVY+54YYb4uLiysvLqx1WWloqAZl+qr1roZdXtPKmVrOQLc0igAACCCCAgKUF6i7XMjIydDpdcHCwKRTZTk1NNb00bsieasdUVFTIudUOk2tyckXN+BMeHl7tXV4igAACCCCAAAIIVBOou1wznuDg8Oe3vuT+adWXphar7jTeY626x3jYrFmz5O6n8ScpKcl0LhsIIIAAAggggAAClxRwvuTeqjsDAwOdnJyqXk5LT0+veiHNeHCrVq2qHePs7BwQEFC1Kdl2u/hTbScvEUAAAQQQQAABBC4nUPfVNVdXV5meY+PGjaYmZHvAgAGml8aN/v37Vz1mw4YNsbGxLi4s9FTNiZcIIIAAAggggEDDBOou16S9mTNnvvfee0uXLpUHP2fMmCGzeMiDn7Jf7myOHz/e2KHsOXv2rBwpx8iRS5YsefzxxxsWC0cjgAACCCCAAAII1BCo+2aonDJ69OjMzMw5c+akpKRER0evX7++TZs2sl9emiZgk0l0Zb8Uc2+99VZoaOj8+fNvu+22Gt2xAwEEEEAAAQQQQKBhAvWad61hTdb7aJnOQx4RlccOLD3vWr0j4kAEEEAAAQQQQMAGArUXRfW6GWqDqOkSAQQQQAABBBBA4KIA5RofBAQQQAABBBBAQNEClGuKTg/BIYAAAggggAAClGt8BhBAAAEEEEAAAUULUK4pOj0EhwACCCCAAAIIUK7xGUAAAQQQQAABBBQtQLmm6PQQHAIIIIAAAgggQLnGZwABBBBAAAEEEFC0AOWaotNDcAgggAACCCCAAOUanwEEEEAAAQQQQEDRAvVaM9RCIzAYDNKyrLpgofZpFgEEEEAAAQQQUIWAsRwylkY1A7ZluZafny8BhYeH1wyLPQgggAACCCCAgL0JSGkky6nXHLUtl3jX6/Xnz5/39vZ2cHCoGZkZ90jFKkVhUlISa8mbUdXsTZEms5NaokHSZAlVs7dJmsxOaokGSZMlVM3eptXSJNfVpFYLDQ11dLzEF9VseXVNAmrdurXZZS/XoNRqlGuXw1HOftKknFzUEglpqgVHOW+RJuXkopZISFMtOMp5yzppuuR1NSPCJSo45egQCQIIIIAAAggggADlGp8BBBBAAAEEEEBA0QJOzz//vKIDNFNwTk5Of/vb35ydbXnz10xD0XIzpEkV2SVNpEkVAqoIkt9NpKmeArZ81KCeIXIYAggggAACCCBgzwLcDLXn7DN2BBBAAAEEEFCBAOWaCpJEiAgggAACCCBgzwKUa/acfcaOAAIIIIAAAioQoFxTQZIIEQEEEEAAAQTsWYByzZ6zz9gRQAABBBBAQAUCdlGuLVy4MDIy0t3dPSYmZsuWLSpIixZDnDdvXp8+fWTNsaCgoJEjRx47dsw0Sll5QyaUkZU3PDw8ZL6VQ4cOmd4qLS199NFHAwMDvby8brnllnPnzpneYsPSApIyWSBu+vTpxo5Ik6XBG9R+cnLyPffcExAQ4Onp2bNnz/j4eNLUIEArHFxRUfHMM8/I3z7yJ1u7du3mzJkjSy+SJivI19nF5s2bb775ZvlLR/6I++KLL0zHN+5Puezs7HHjxsmCBPIjGzk5OaYGzbkhwWn756OPPnJxcXn33XcPHz78j3/8Q/7WP3v2rLaHrMzR3XDDDcuWLTt48ODevXuHDx8eERFRUFBgDPXll1+WMm7t2rUHDhwYPXp0SEiIrNFmfGvq1KlhYWEbN27cvXv34MGDe/ToIX8CKnOAGotq586dbdu27d69u/yuIU1KS25WVlabNm0mTpy4Y8eO06dP//DDDwkJCaRJaWmaO3eu1NNff/215OiTTz5p3rz5G2+8QZqUkKb169fPnj1b/tKRcurzzz83hdS4v4xuvPHG6OjobRd/ZOPvf/+7qUEzbjQzY1vKbKpv377yV74pts6dOz/11FOml2zYRCA9PV1+k/zyyy/Su/xzs1WrVvKbxBhJSUmJ/APl7bfflpfybxQptaXgNr4llxNkndnvvvvO+JJfLScgywx37NhRquRrrrnGWK6RJstpN6LlJ5988qqrrqp5ImmqaWLDPfLv0smTJ5sCuPXWW+WCqLwkTSYTm29ULdcalxe5EiSN/Pbbb8axbN++XV4ePXrU7EPT+M3QsrIyuUcwdOhQ4TP+yLZUwH+84v+2EcjNzZWO/f395Vf5d2dqaqopR25ublIiGHMkuSsvLze9JReujf+CsU3Q9tTrww8/LH/TXHfddaZBkyYThRI21q1bFxsbe8cdd8hXC3r16iV3D4xRkSYlZMcUg5TUP/744/Hjx2XPvn37tm7detNNN8k2aTIRKWqjcXmR+kwuMfTr1884liuvvFJeWqLM0PiiTBkZGTqdLjg42PSZkG0pDkwv2bC+gPybY+bMmfIHmdRe0rsxHdVyJDesjW+5urq2aNHCFCTpM1FYbkMuZ8qt5127dlXtgjRV1bD59qlTpxYtWiS/j55++mm5bT1t2jT5d8748eNJk81TUzUAuQgq/zSVWzqy0pT8TfTiiy/eddddcgBpqqqknO3G5UXOkn81VR2FvDQ2VXVn07c1Xq4ZgeS7hCYpqRWqvjTtZ8NqAo888sj+/fvlH5pVe6yalFpyVMtbVVtju9ECSUlJcvdzw4YN8mhOzUZIU00Tm+yRuzZyde2ll16S3uXqmjydI9WblGvGYEiTTZJSs9M1a9Z88MEHH374YdeuXeU7u/LUjtwimDBhAmmqaaWcPY347VP1FBmIhf6e0vjNUHmiUP5ZU7XOlW9NVb2Qo5yPiJ1EIo95yn2cn376qXXr1sYhyxfXZOOSOZK35Ha2PHRjwiF9JgoLbcgNaEGWZ6idL/7I9wvnz58vm8bfNaTJQuwNbVYex+nSpYvprKioqMTERHnJ7yaTiRI2/vnPf8pXpceMGdOtWzd5YHDGjBnytDVpUkJqLhlD4377yFlpaWlVG7xw4YIlygyNl2tyK03+4pFvTJsoZXvAgAGml2xYTUD+wSHX1T777LNNmzbJk+2mfmVbPu6mHEl9JiWCMUeSO3nUwPRWSkqKPFhK+kx0lti49tpr5flcuRJg/JFLOHfffbdsyzQEpMkS4I1rc+DAgVWnwpFvR8mDotIUv5sa52mhs4qKiuTpKFPjcu1ALouSJhOI0jYa99unf//+cstbvpNgHI48rC0vLfL3lPwlqu0f40QeS5Yskcc35Fq0TORx5swZbQ9ZmaN78MEH5QuYP//8s1Rdxh/5s8wYqjwWKm9JJSeFgny3o9pEHnIdTuYpkG9TDRkyhIk8rJxc05Oh0i9psjJ+Ld3J3w1yyVO+C3XixIlVq1bJ1Gty0814PGmqxc3Kb8l9T5mHyDiRh/z5Jnd7nnjiCdJk5Sxcsjt5+H3PxR+psV577TXZNM7w1bjfPjKRh8x5JM8cyI9cSWUij0ua12vnW2+9Jf/0lCttvXv3Nk4eUa/TOMisAjX/ISXTsBl7kH9xPvfcc3LxRr4uffXVV0vRZuq5uLhYrsnJM6Qyz6T8HpA7Pqa32LCCQNVyjTRZAbz+XXz11VfysI78lpFvsi9evNh0ImkyUdh8Q+aPlG+CyhyT8k1QuT4tE33JvN/GqEiTbbMjX8ip9leS1NYSUuPykpmZKXchZPZQ+ZEN+QKPJUbnII1WC5qXCCCAAAIIIIAAAsoR+PO2unJiIhIEEEAAAQQQQAABkwDlmomCDQQQQAABBBBAQIkClGtKzAoxIYAAAggggAACJgHKNRMFGwgggAACCCCAgBIFKNeUmBViQgABBBBAAAEETAKUayYKNhBAAAEEEEAAASUKUK4pMSvEhAACCCCAAAIImAQo10wUbCCAAAIIIIAAAkoUoFxTYlaICQEEEEAAAQQQMAlQrpko2EAAAQQQQAABBJQoQLmmxKwQEwIIIIAAAgggYBL4f66hLTkvhC8kAAAAAElFTkSuQmCC;" parent="1" vertex="1">
          <mxGeometry x="860" y="163" width="826" height="505" as="geometry" />
        </mxCell>
        <mxCell id="ELQDbCGjd16Vh4-IR_vf-2" value="$$\sqrt{1-\bar{\alpha}}$$" style="text;html=1;align=center;verticalAlign=middle;whiteSpace=wrap;rounded=0;fontSize=70;fontColor=#000000;" parent="1" vertex="1">
          <mxGeometry x="1360" y="520" width="312" height="105" as="geometry" />
        </mxCell>
      </root>
    </mxGraphModel>
  </diagram>
</mxfile>
